<svg xmlns="http://www.w3.org/2000/svg" width="375" height="1126" fill="none" preserveAspectRatio="xMidYMin meet" viewBox="0 136 375 1126"><g clip-path="url(#a)"><path fill="#fff" d="M0 0h375v1571H0z"/><path fill="#202428" fill-opacity=".4" d="M28.8 133.8v3h-7.3v-3zm-6.2.9v1.3h5.1v-1.3zm6.8-7.4v.9H21v-.9h3.7v-1h1.1v1zm-4.2 1.3q3.4 0 3.4 1.4t-2.9 1.5v.7H30v1h-9.6v-1h4.2v-.7q-2.8 0-2.9-1.5.1-1.5 3.5-1.4m0 .7q-2.3 0-2.3.7 0 .8 2.3.8 2.1 0 2.2-.8 0-.6-2.2-.7"/><path stroke="#202428" stroke-linecap="round" stroke-linejoin="round" stroke-opacity=".4" stroke-width="1.3" d="m41 136 4-4-4-4"/><path fill="#353a40" d="M63.8 130.8h1.4v1.2h-1.4v5h-1.5v-10.6h1.5zm-8.6 3.3h2.6v-1q-.6 0-1-.4l-.6-.6q-.2-.4-.2-1 0-.4.3-1 .3-.4 1-.7l1.3-.2q.8 0 1.3.2t1 .8.3 1a2 2 0 0 1-.9 1.6l-1 .3v.9l2.5-.2.1 1-3 .4h-3.5zm6.5-5.3h-6.3v-1.2h2.4v-1.1h1.5v1.1h2.4zm-3.1 1.5q-.6 0-.9.3t-.3.6.3.6.9.3.8-.3.4-.6-.4-.6q-.3-.3-.8-.3m12.4-2.2h2v-1.7h1.5v7.8H73v-2.6h-2v.9h-5v-5.2h5zm-3.6 3.2h2.1v-2.8h-2zm7.3 5.6h-7.3v-3.5h1.5v2.3h5.8zm-1.7-6.5v-1.1h-2v1zm13.8-2.4-.3 3.6H88v1.2h-4.2v4.3h-1.5v-4.3h-4v-1.2H85a13 13 0 0 0 .3-3.4h-6V127h7.5zm5.6-.1q0 .8.3 1.3.3.8.8 1.2.5.5 1.4.7l-.8 1.2q-.8-.3-1.5-.8t-.9-1.3q-.3.8-1 1.5l-1.6 1-.8-1.3 1.5-.8q.6-.4.8-1.2l.3-1.5v-1h1.5zm5 4.8h-1.5v-3.1h-2v-1.2h2v-2h1.5zm-3.7.2q1.2 0 2 .3t1.3.7q.4.5.4 1.1t-.4 1.1-1.3.7-2 .3l-2-.3q-.8-.2-1.2-.7t-.4-1 .4-1.2q.4-.4 1.3-.7t2-.3m0 1.2q-1 0-1.6.2t-.5.7.5.7l1.6.2q1.2 0 1.7-.2t.5-.7-.5-.7zm-59.1 27.2h2.4v2h-2.4v8.5h-2.5V154h2.5zm-14.4 5.5h4.4v-1.6q-1-.2-1.6-.6-.8-.5-1.1-1.1t-.4-1.5.5-1.7q.6-.9 1.6-1.2 1-.4 2.3-.4 1.3-.1 2.2.4t1.6 1.2q.5.7.6 1.7a3 3 0 0 1-1.6 2.6q-.6.5-1.6.6v1.5l4.1-.4.2 1.8-5 .6-5.9.1zm11-8.9H20.6V156h4v-1.9h2.5v1.9h4zm-5.3 2.6q-.9 0-1.5.4t-.5 1q0 .9.5 1.2t1.5.3q.9 0 1.4-.3.6-.4.5-1.1t-.5-1q-.5-.5-1.4-.5m20.5-3.7h3.3V154h2.5v13h-2.5v-4.4h-3.3v1.5H38v-8.6h8.4zm-6 5.4h3.6v-4.8h-3.6zm12.2 9.3H40.5v-5.8H43v3.8h9.7zm-2.9-10.9v-1.8h-3.3v1.8zm22.7-4-.4 6h2.3v2h-7v7.2H65v-7.2h-6.8v-2h11.3a22 22 0 0 0 .5-5.5H60v-2h12.5zm9.2-.2q0 1.3.4 2.3.5 1.2 1.4 2 1 .8 2.3 1.2l-1.3 2a7 7 0 0 1-4-3.5q-.6 1.4-1.7 2.4-1 1-2.7 1.6l-1.3-2q1.5-.5 2.5-1.4t1.4-2 .5-2.4v-1.7h2.5zm8.3 8h-2.5v-5h-3.3v-2.1h3.3V154H90zm-6.1.5q1.9 0 3.3.4t2 1.2.8 1.9-.7 1.8-2.1 1.2-3.3.4-3.3-.4q-1.4-.4-2-1.2-.8-.7-.8-1.8t.7-1.9 2.1-1.2 3.3-.4m0 2q-1.8 0-2.7.3-1 .4-1 1.2t1 1q.9.5 2.7.5 1.7 0 2.7-.4t1-1.1-1-1.2-2.7-.4M31 199.3v3.7h-9v-3.7zm-7.9.9v2h6.7v-2zm8.6-9v1H21.1v-1H26V190h1v1.3zm-5.2 1.5q4.1 0 4.2 1.8 0 1.8-3.7 1.9v1h5.4v.9H20.5v-1H26v-1q-3.6 0-3.7-1.8.1-1.8 4.3-1.8m0 .8q-3 0-3 1t3 1 3-1-3-1m18.7 3.5v1h-12v-1zm-1.4 5v1h-9v-4H36v2.8zm-4.6-11.4q4.4.1 4.6 2.6-.2 2.5-4.6 2.6-4.4-.1-4.6-2.6.2-2.5 4.6-2.6m0 1c-2 0-3.4.6-3.4 1.6q.1 1.6 3.4 1.7 3.3-.1 3.5-1.7-.2-1.5-3.5-1.6m13.5-.7q2.8.2 3 3-.1 2.7-3 2.9c-1.7 0-3-1.2-3-3 0-1.7 1.3-3 3-2.9m0 1c-1 0-2 .8-1.9 2q.1 1.8 2 2 1.7-.2 1.9-2-.1-1.9-2-2m8-1.7v7h-1.1v-3H58v3h-1.1v-6.8h1v2.8h1.8v-3zm-7.5 7.7v1.5h6.4V198h1v5.1h-8.5V198zm0 4.2h6.4v-1.7h-6.4zm15.1-11.7q4.5 0 4.6 2.2-.1 2.3-4.6 2.3t-4.6-2.3q.1-2.2 4.6-2.2m0 .9q-3.4 0-3.4 1.3 0 1.5 3.4 1.4 3.3 0 3.4-1.4 0-1.2-3.4-1.3m6 4.5v1h-12v-1zm-1.6 2v3H65v1.3h8v1h-9.3v-3.2h7.8v-1.2h-7.8v-.8zm9.6-7.2q1.7 0 2.7 1.2h3.4v-1.6h1v6.7h-1v-1.5H85q-1 1-2.8 1.1c-2 0-3.4-1.2-3.4-3q.2-2.7 3.4-2.9m0 1q-2.1.1-2.3 2 .2 1.9 2.3 2 2.1-.1 2.3-2-.2-1.9-2.3-2m7.2 6v3h-7.3v1.5H90v1h-9v-3.3h7.4v-1.4H81v-.9zm-4-5 .2 1q0 .5-.2.8h2.9v-1.7zM96 199q0 2 1.8 3.1a4 4 0 0 0 2-3.1v-.8h1v.8c0 1.3 1 2.7 2.7 3.3l-.6.8a4 4 0 0 1-2.6-2.5q-.7 1.8-2.5 2.6-1.8-.7-2.4-2.5-.8 1.6-2.6 2.4l-.6-.8c1.7-.6 2.6-2 2.7-3.3v-.8h1zm-1-8q2.8.1 3.4 2.5h2.7v-3.2h1.2v7.4H101v-3.2h-2.7c-.2 1.6-1.6 2.6-3.3 2.6-2 0-3.4-1.2-3.4-3q.2-2.8 3.4-3m0 1c-1.2 0-2.2.8-2.2 2q.2 2 2.3 2.2c1.2 0 2.2-1 2.2-2.1q-.2-2-2.2-2.1m15.2-1.5q4.5 0 4.6 2.2-.1 2.3-4.6 2.3t-4.6-2.3q.1-2.2 4.6-2.2m0 .9q-3.4 0-3.4 1.3 0 1.5 3.4 1.4 3.3 0 3.4-1.4-.1-1.2-3.4-1.3m6 4.5v1h-12v-1zm-1.6 2v3h-7.8v1.3h8.2v1h-9.3v-3.2h7.8v-1.2h-7.8v-.8zm14.6-7.3v5h1.6v-5.3h1v13h-1v-6.8h-1.6v6.1h-1v-12zm-5.4 1.3v1H122v6l1.9-.2v1l-2.4.2h-.5v-8zm3.4 0v1h-1.8v6l2.1-.3.1 1q-1.6.4-2.7.3h-.5v-8zm19.8-1.6v5.3h2v1h-2v6.7h-1.2v-13zm-3.4 1.4c0 3.7-1.7 7-6 9.1l-.6-.9q5.1-2.6 5.4-7.3h-4.8v-1zm10.5 1c0 1.7 1.2 3.3 3.2 3.9l-.6.9a5 5 0 0 1-3.2-2.8 6 6 0 0 1-3.3 3.2l-.6-1c2-.6 3.3-2.3 3.3-4.2v-.5h-3v-1h7.1v1h-3zm5.7-2.4v3.3h2v1h-2v3.5h-1.1v-7.8zm-4.1 8.2c2.6 0 4.3.9 4.3 2.4q-.2 2.3-4.3 2.4-4.2-.2-4.4-2.4.2-2.3 4.4-2.4m0 1q-3.1 0-3.2 1.4.1 1.4 3.2 1.4 3 0 3.1-1.4-.1-1.5-3.1-1.5m16.9-8v2.4h3v-3.6h1.2v9.5h-1.2v-5h-3v2.6h-6v-6zm-4.9.9v4.1h3.8v-4.1zm9.5 9.6v1h-8.8v-4h1.2v3zm12.3-11.7v13h-1.1V196h-2.9v-1h2.9v-4.7zm-6.2 3.8c0 2.2 1.5 4.6 3.4 5.4l-.7 1a7 7 0 0 1-3.3-4.2q-1 3.1-3.4 4.4l-.7-.9c2-1 3.5-3.4 3.5-5.7v-1.5h-3v-1h7.2v1h-3zm23.7 6.6v1h-12v-1h5.4v-2.8h-4V191h1.2v2.3h6.8V191h1.1v6.7h-4v2.8zm-9.4-3.8h6.8v-2.4h-6.8zm21-6.6v13h-1.2v-13zm-7 1c2 0 3.4 1.7 3.4 4.5s-1.4 4.5-3.3 4.5c-2 0-3.4-1.7-3.4-4.5q.2-4.3 3.4-4.5m0 1c-1.2 0-2.2 1.4-2.2 3.5q.2 3.3 2.3 3.5 2-.2 2.2-3.5c0-2.1-1-3.5-2.2-3.5m19.5 2v.8h-8.9v-4.4h1.2v3.5zm1.4 2.6v1h-12v-1zm-1.3 5.1v1h-9v-4h1v2.8zm15.8-11.7v5.5h2.1v1h-2v6.5h-1.2v-13zm-10.2 9.5h3.6v-1.5q-2.4-.2-2.5-2.3.1-2.3 3-2.4 3 .1 3.1 2.4-.1 2-2.5 2.3v1.4l3.6-.3v.9c-2.8.5-5.8.5-8.1.5zm8-8v1H237v-1h3.4v-1.5h1.1v1.6zm-3.8 2.7q-1.9 0-2 1.5.1 1.4 2 1.5 1.8 0 2-1.5-.2-1.5-2-1.5m15.3-3v1h3v-2.2h1.2v9.5h-1.2v-3.5h-3v1.2h-6v-6zm-4.8.9v4.2h3.7v-4.2zm9.3 9.6v1H252v-4h1.1v3zm-4.5-6.6h3v-1.9h-3zm17-5.1v7H272v-7zm-7.4 7.6v1.6h6.2v-1.6h1.1v5.2h-8.4v-5.2zm0 4.3h6.2v-1.8h-6.2zm.3-11.3q3.2.2 3.4 3-.2 2.8-3.4 3c-3.2.2-3.4-1.2-3.4-3q.2-2.9 3.4-3m0 1q-2.1.1-2.3 2 .2 1.9 2.3 2 2.1-.1 2.3-2-.2-1.9-2.3-2m19.8-1.6v13h-1.2v-13zm-8.8 1.3v7.3q3 0 6.2-.6l.2 1q-3.4.7-6.5.6h-1v-8.3zm20.9-1.3v5.1h2.2v1H298v7h-1.2v-13.1zm-3.5 1.2v1H290v6.6c2.4 0 4-.1 6-.5l.1 1c-2 .4-3.7.4-6.2.4h-1v-8.5zm7.5 10.7a1 1 0 0 1-.9-1q0-.8 1-.9a1 1 0 0 1 0 1.9m11.8-11.4c2.8 0 5 1.5 5 3.7 0 2-1.7 3.3-4.1 3.6v2.3h5.2v1.5h-12.2v-1.5h5.1V198q-3.8-.5-4-3.6c0-2.2 2-3.7 5-3.7m0 1.5q-3 0-3.2 2.2.2 2.2 3.2 2.2c1.8 0 3.1-.8 3.1-2.2s-1.3-2.2-3.1-2.2m17.4.5v1.5h-9.2v-4h1.8v2.5zm1.4 2.4v1.5h-12.2V195zm-1.4 2.3v3.5h-7.5v.9h7.9v1.4H322v-3.6h7.4v-.8H322v-1.4zm6.3-6.5c2.1 0 3.7 1.4 3.7 3.3s-1.6 3.3-3.7 3.3c-2 0-3.7-1.4-3.7-3.3 0-2 1.6-3.3 3.7-3.3m0 1.6q-1.7 0-1.8 1.7.1 1.5 1.8 1.6 1.7 0 2-1.6-.2-1.6-2-1.7m7-2.5v13.4h-2V190zm-11.2 9.1c2.3 0 5.6 0 8.5-.4l.1 1.4q-4.6.7-8.4.6zM31 212.5v4.7h-3.6v1.3h5.2v1.5H20.4v-1.5h5.1v-1.3H22v-4.7zm-7.3 1.5v1.8h5.5V214zm7.4 7v4.3h-1.9v-2.8h-7.5V221zm14.3 1.4v1.5H33.2v-1.5h3v-2.6h-2v-1.5H36v-3.7h-2V213h10.2v1.5h-1.8v3.7h1.8v1.5h-2v2.6zm-7.6-4h2.8v-3.8h-2.8zm.3 4h2.3v-2.6h-2.3zM50 213c2 0 3.4 1.3 3.5 3q-.1 2.7-3 3v2.3l3.6-.3.1.9c-2.7.4-5.8.5-8.1.5l-.2-1h3.5V219c-1.7-.2-3-1.4-2.9-3q.2-2.9 3.5-3m0 1q-2.2.2-2.4 2 .1 2 2.4 2.1 2.1-.1 2.3-2-.2-1.9-2.3-2m6.1-1.8v5.3h2.1v1h-2v6.7H55v-13zm16.7-.2v2.6h1.8v1.5h-1.8v2.6H71V212zm0 7.2v3.6h-7v1h7.4v1.4H64v-3.7h7v-.9h-7v-1.4zm-6.9-6.8c2 0 3.6 1.3 3.6 3 0 1.8-1.5 3-3.6 3-2 0-3.6-1.2-3.6-3 0-1.7 1.6-3 3.6-3m0 1.5q-1.6 0-1.7 1.5.1 1.5 1.7 1.6 1.7 0 1.8-1.6 0-1.5-1.8-1.5m20.3-1.9v8h-1.9v-8zm-4.3.8v4h-4.4v1.1c2.3 0 3.8 0 5.6-.3l.3 1.5q-2.8.4-6.5.4h-1.2v-4.1H80v-1.1h-4.3v-1.5zm4.3 7.7v4.7h-9v-4.7zM79 222v1.7h5.2V222zm11 1-1.2 4h-1l.7-4zm15.5-11v2.5h1.8v1.5h-1.8v2.6h-1.9V212zm-8.2.6v4a29 29 0 0 0 5.2-.4l.2 1.5q-3.3.6-6.1.5h-1.2v-5.6zm8.2 6.6v3.6h-7v1h7.4v1.4h-9.2v-3.8h6.9v-.8h-7v-1.4zm13.1-7.2v5h1.5v1.6h-1.5v6.7h-1.9v-4.1l-1.1 1.3a5 5 0 0 1-1.7-2.8q-.5 1.8-1.9 3-1.4-1.2-1.8-3a5 5 0 0 1-1.7 2.8l-1.2-1.3c1.7-1.3 2-3.6 2-5.8v-.7H108v-1.5h4v1.5h-.9v.7a9 9 0 0 0 1 4.7c1-1.3 1-3.2 1-4.7v-.7h-.7v-1.5h3.7v1.5H115v.7c0 2.2.2 4.5 1.8 5.7v-9zm16.2 0v13.4H133V212zm-7.2 1c2 0 3.5 1.8 3.5 4.7s-1.5 4.8-3.5 4.8-3.5-1.9-3.5-4.8 1.5-4.7 3.5-4.7m0 1.6q-1.6 0-1.7 3.1.1 3 1.7 3t1.7-3q-.1-3-1.7-3m21 3.7v1.5h-12.2v-1.5h5.2v-1.1H138v-4.6h9.3v1.5h-7.4v1.6h7.4v1.5h-3.7v1.1zm-6 2.2q4.3 0 4.6 2.4-.2 2.5-4.7 2.5-4.6-.1-4.7-2.5.2-2.4 4.7-2.4m0 1.4q-3 0-2.9 1 0 1 2.8 1t2.8-1-2.8-1m12.7-9.5q4.5 0 4.6 2.2-.1 2.3-4.6 2.3t-4.6-2.3q.1-2.2 4.6-2.2m0 .9q-3.4 0-3.4 1.3 0 1.5 3.4 1.4 3.3 0 3.4-1.4-.1-1.2-3.4-1.3m6 4.5v1h-12v-1zm-1.6 2v3H152v1.3h8.2v1h-9.3V222h7.8v-1.2h-7.8v-.8zm10.7-4.8c0 1.7 1.3 3.3 3.3 4l-.6.8a5 5 0 0 1-3.3-3 6 6 0 0 1-3.3 3.3l-.6-1c2-.6 3.3-2.3 3.3-4.1v-.8h-3v-1h7.2v1h-3zm6-2.8v9.5h-1.1v-9.5zm.4 11.7v1h-8.8v-4h1.2v3zm12.7-11.7v8.2h-1.1v-3.7h-1.7v3.2h-1.1v-7.5h1v3.3h1.8v-3.5zm-4.5 1.5v1h-6.6v-1h2.7v-1.4h1.2v1.4zm-3.3 1.7q2.7 0 2.8 2.2-.1 2-2.8 2.2c-1.6 0-2.8-.9-2.8-2.2q.2-2.1 2.8-2.2m0 .8q-1.6.1-1.7 1.4.1 1.3 1.7 1.3t1.8-1.3-1.8-1.4m3.5 4.4q4.2.1 4.4 2.3-.2 2.2-4.4 2.3-4.3-.1-4.4-2.3.1-2.2 4.4-2.3m0 1q-3.2 0-3.2 1.3.1 1.4 3.2 1.4t3.2-1.4q-.1-1.4-3.2-1.4m16.2-9.5v3.2h2v1h-2v3H200v-7.2zm0 7.9v2.9H194v1.3h7.7v.8h-8.8v-3h7.1v-1h-7.1v-.9zm-2.4-6.6v.9H191v-1h3.3V212h1.2v1.4zm-3.9 1.5q3 0 3.1 2.1-.1 2-3 2.1-3.1 0-3.2-2.1.1-2 3.1-2.1m0 .8q-1.9 0-2 1.3.1 1.3 2 1.3t2-1.3q-.1-1.2-2-1.3m19-2.3c0 1.8 2.4 3.4 4.7 3.7l-.5 1c-2-.4-4-1.5-4.8-3-.9 1.5-2.9 2.6-4.9 3l-.5-1c2.4-.3 4.8-1.9 4.8-3.7v-.8h1.2zm5.3 6.1v1H214v4.7h-1v-4.7h-5.4v-1zm8.9 1.4q0 2 1.8 3c1.3-.7 2-2 2-3v-.7h1v.7c0 1.3 1 2.7 2.7 3.3l-.6.8a4 4 0 0 1-2.6-2.4q-.6 1.6-2.4 2.5-2-.8-2.5-2.5-.8 1.7-2.6 2.4l-.6-.8q2.5-1.2 2.7-3.3v-.7h1zm6.3-8.7v7.4h-1.1v-7.4zm-7 .7c2 0 3.4 1.3 3.4 3 0 1.9-1.4 3.1-3.4 3.1s-3.4-1.2-3.4-3q.2-2.8 3.4-3m0 1q-2.2.2-2.3 2 .2 2 2.3 2.2c1.3 0 2.3-1 2.3-2.1q-.2-1.9-2.3-2m11.7 6v1.6h6.5V220h1.1v5h-8.8v-5zm0 4.2h6.5v-1.7h-6.5zm9.2-6v1h-11.9v-1zm-5.3-5.2c0 1.6 2.3 3 4.6 3.4l-.4.9c-2-.3-4-1.3-4.8-2.8-.9 1.5-2.9 2.5-4.9 2.8l-.4-1c2.3-.2 4.7-1.6 4.7-3.3v-.6h1.2zm17-.7v13h-1v-13zm-8.8 1.3v7.3q3 0 6.2-.6l.1 1q-3.4.7-6.4.6h-1v-8.3zm20.8-1.3v5.1h2.2v1H272v7h-1.1v-13.1zm-3.4 1.2v1h-5v6.6c2.4 0 4-.1 6-.5l.2 1c-2 .4-3.8.4-6.3.4h-1v-8.5zm7.5 10.7a1 1 0 0 1-1-1 1 1 0 1 1 2 0q-.1 1-1 1M31.3 256v9.6H30v-9.5zm.4 11.8v1h-8.8v-4H24v3zm-6.6-9.7a5 5 0 0 0 3.3 4.5l-.6 1a6 6 0 0 1-3.2-3.3 6 6 0 0 1-3.3 3.4l-.6-.9a5 5 0 0 0 3.3-4.7V257h1zm12.6.8c0 1.6 1.4 3 3.4 3.6l-.6.9a5 5 0 0 1-3.3-2.7 5 5 0 0 1-3.3 3l-.6-.8q3.1-1.2 3.3-4v-.3h-3v-1h3V256h1.2v1.7h2.9v.9h-3zm6.4-2.8v7.9h-1.2v-3.2h-2.6v-1h2.6v-3.7zm-4.3 8.2q4.2 0 4.3 2.4-.1 2.3-4.3 2.4-4.2-.1-4.4-2.4.2-2.3 4.4-2.4m0 1q-3.1 0-3.3 1.4.1 1.4 3.3 1.4t3.2-1.4q-.1-1.5-3.2-1.5m20.6-8.8v.9h-2v2.5h2v.9h-9.6v-.9h2v-2.5h-2v-1zm1 5.4v1H49.7v-1zm-1.4 2v3h-7.8v1.2h8.2v.8H51v-3h7.7v-1H51v-1zm-6.1-4h3.3v-2.5H54zm19.5-3.8v9.7h-1V261h-1.9v4.5h-1v-9h1v3.6h1.8v-4zm.4 11.7v1H65v-4h1v3zm-6-10.6v3.7h-3.7v2q2.4 0 4.6-.4l.1 1c-1.7.2-3 .3-5 .3H63v-3.8h3.8V258H63v-1zm18.5-1.1v13h-1.1v-13zm-2.6.2v12.1h-1.1V262h-1.7q-.3 4-2.8 4.1-2.7-.2-2.8-4.5.1-4.4 2.8-4.5 2.5.1 2.8 4h1.7v-4.9zm-5.6 2q-1.6.1-1.7 3.4.1 3.3 1.7 3.4 1.6-.1 1.7-3.4t-1.7-3.5m23.7-2.3v5.2h1.9v1h-2v6.9h-1v-13zm-6.6 1.4v1H93v6.3q1 0 2.3-.3l.1 1q-1.8.4-3 .3H92v-8.3zm4.2 0v1h-2.3v6.3q1.4 0 2.7-.3l.1 1q-1.5.3-3.3.3h-.7v-8.3zm15-1.3v5.2h2.1v1h-2.2v6.8h-1.1v-13zm-3.7 1.2v4.6h-4.8v3c2.4 0 4.1 0 6.1-.4l.1 1c-2 .4-3.8.5-6.3.5h-1v-5h4.7V258h-4.7v-1zm14.2 2.3c0 2.3 1.6 4.6 3.4 5.5l-.7 1a7 7 0 0 1-3.2-4.1q-1 3-3.3 4.3l-.7-1a7 7 0 0 0 3.4-5.7V257h1.1zm5.7-3.5v5.3h2.2v1h-2.2v6.7h-1.1v-13zm14.6 6.4v1h-11.9v-1h3v-1.8q-1.6-.5-1.6-2 .1-2.3 4.6-2.4 4.4 0 4.6 2.4 0 1.4-1.6 2v1.8zm-6 2q4.4 0 4.5 2.3-.1 2.2-4.4 2.3-4.4-.1-4.5-2.3 0-2.3 4.5-2.3m0 .8q-3.2 0-3.3 1.5.1 1.3 3.4 1.4 3.2-.1 3.3-1.4-.2-1.4-3.3-1.5m0-8c-2 0-3.4.5-3.4 1.4q.1 1.5 3.5 1.5c2 0 3.4-.5 3.4-1.5q-.1-1.5-3.4-1.5m-1.8 5.2h3.7v-1.5a11 11 0 0 1-3.7 0zm23-6.4v13h-1.1v-13zm-3.8 1.4q.2 5.8-6.1 9.1l-.7-.9q5.2-2.6 5.6-7.3h-5v-1zm16.3 2.2v1h-8.8V256h1v3.4zm1.4 2.5v1h-11.9v-1zm-6 2.1q4.4 0 4.5 2.4-.1 2.3-4.4 2.3t-4.5-2.3q0-2.3 4.5-2.4m0 1q-3.2 0-3.3 1.4.1 1.4 3.4 1.4t3.3-1.4q-.2-1.5-3.3-1.5m17.6-9.2v13h-1.1v-13zm-6.9 1q3.1.2 3.3 4.5c0 2.8-1.4 4.5-3.3 4.5q-3.2-.1-3.3-4.5.2-4.4 3.3-4.5m0 1q-2 .2-2.2 3.5.1 3.3 2.2 3.5 2-.2 2.2-3.5-.1-3.3-2.2-3.5m24.4 8.4v1H192v-1h5.4v-3.2h1.2v3.2zm-5.3-8c0 2.1 2.5 4 4.8 4.3l-.5.9c-2-.4-4-1.7-5-3.5-.8 1.8-2.9 3.1-4.8 3.5l-.5-.9c2.2-.4 4.8-2.2 4.8-4.3v-.3H193v-1h10v1h-5zm16.5-1.7v1q0 1.4-.3 3.8h2v1h-12v-1h8.8q.5-2.5.4-3.9h-7.7v-1zm.1 7.5v4.6h-9v-4.6zm-7.8 1v2.7h6.7v-2.8zm21-.9v4.7h-1.1v-3.8H219v-.9zm0-8.3v7.6h-1.1v-7.6zm-7.8 2.1c0 1 .3 2.6 1.3 3.6 1-1 1.3-2.5 1.3-3.6v-.8h1v1.3c0 1.5.6 3.2 2.1 4l-.6.9q-1.4-1-2-2.7a5 5 0 0 1-1.8 2.8q-1.5-1-1.8-2.8-.5 1.6-2 2.7l-.6-.9c1.5-.9 2-2.7 2-4V257h1.1zm19.7-1.4v1H235v3.4c2.6 0 4 0 5.9-.4l.1.9c-1.8.4-3.4.4-6.1.4h-1V257zm3.8-.7v2.7h2v1h-2v2.8h-1.2v-6.5zm0 7.2v3.2h-7.2v1.5h7.6v1h-8.7v-3.4h7.1v-1.4h-7.2v-1zm12.6-7.2v5.2h2.2v1h-2.2v6.8h-1.1v-13zm-3.6 1.2v4.6h-4.8v3c2.4 0 4.1 0 6.1-.4l.1 1c-2 .4-3.8.5-6.3.5h-1v-5h4.7v-2.8h-4.7v-1zm11 1c0 1.6 1.4 3.1 3.3 3.7l-.5 1a5 5 0 0 1-3.4-3 6 6 0 0 1-3.3 3.1l-.6-.9q3.1-1.1 3.3-4v-.3h-3v-1h7.2v1h-3zm6-2.2v7h-1v-7zm-7.2 7.7v1.5h6.1v-.9h1.2v5.1h-8.5V264zm0 4.2h6.1v-1.7h-6.1zm20-12v13h-1.1v-13zm-8.8 1.4v7.3q3 0 6.3-.6l.1 1q-3.4.7-6.4.6h-1V257zm21-1.3v5.1h2v1h-2v7h-1.2v-13.1zm-3.5 1.2v1h-5v6.6c2.4 0 4-.1 6-.5l.2 1c-2 .4-3.8.4-6.3.4h-1v-8.5zm7.5 10.7a1 1 0 0 1-1-1q.1-.8 1-.9a1 1 0 0 1 0 1.9"/><g clip-path="url(#b)"><g clip-path="url(#c)"><rect width="296" height="641" x="39.5" y="316" fill="#f8f9fb" rx="16"/><path stroke="#191919" stroke-width=".8" d="M304.5 329.3h13.1q1.6.2 1.7 1.7v4.7q-.1 1.6-1.7 1.7h-13.1q-1.7-.1-1.8-1.7V331q.2-1.6 1.8-1.7Z" opacity=".3"/><path fill="#191919" d="M320.5 331.8v3.1a1.7 1.7 0 0 0 0-3.1" opacity=".4"/><path fill="#191919" d="M304 331.3q0-.7.8-.8h12.5q.7.1.8.8v4q-.1 1-.8 1h-12.5a1 1 0 0 1-.9-1z"/><path fill="#191919" fill-rule="evenodd" d="M292.3 330.7q2.8 0 4.7 1.9h.4l.9-1v-.3a8.6 8.6 0 0 0-11.9 0v.3l1 1h.2q2-1.9 4.7-2m0 3q1.6 0 2.6 1h.4l.9-1v-.3c-2.2-2-5.5-2-7.7 0v.4l1 .9h.3q1.1-1 2.5-1m1.9 2-.1.2-1.6 1.6h-.3l-1.6-1.6v-.4c1-.8 2.5-.8 3.5 0zm-12.6-6.4h-.8q-.8 0-.8.7v6.9q0 .7.8.8h.8q.7-.1.8-.8v-6.9q-.1-.6-.8-.7M277 331h.8q.7.1.8.8v5q-.1.7-.8.8h-.8a1 1 0 0 1-.8-.8v-5q.1-.7.8-.8m-2.9 1.8h-.8q-.7.1-.8.8v3.2q.1.7.8.8h.8q.7-.1.8-.8v-3.2q-.1-.7-.8-.8m-3.7 1.6h-.8q-.7.1-.8.8v1.6q.1.7.8.8h.8q.7-.1.8-.8v-1.6q-.1-.7-.8-.8" clip-rule="evenodd"/><path fill="#191919" d="M66.7 329c1.8 0 3.4 1.2 3.4 4.2q-.1 4.4-3.4 4.5-2.4-.2-3-2.2h1.5q.5 1 1.5 1c1.3 0 1.9-1.3 2-3v-.1h-.2q-.5 1-2.1 1.2a2.6 2.6 0 0 1-2.8-2.7 3 3 0 0 1 3.1-3m0 4.5q1.6-.1 1.7-1.7-.1-1.6-1.6-1.7-1.6.2-1.7 1.7.1 1.6 1.6 1.7m5.6-1.4q-.9 0-1-1 .1-.8 1-.9t1 1q-.1.8-1 .9m0 4.3q-.9 0-1-1 .1-.8 1-.9t1 1q-.1.8-1 .9m6.3 1V336h-4.1v-1.2q1.6-3 3.4-5.6H80v5.5h1.1v1.3h-1v1.6zm-2.7-2.7h2.7v-4.4q-1.6 2-2.7 4.3m8.3 2.8v-6.9H84l-2 1.5v-1.4l2.1-1.6h1.5v8.4z"/><g clip-path="url(#d)"><rect width="31.6" height="31.6" x="55.3" y="358.6" fill="#fff" rx="15.8"/><circle cx="71.1" cy="372.6" r="7.9" fill="#e8ebee"/><ellipse cx="71.1" cy="390.2" fill="#e8ebee" rx="14.7" ry="7.9"/><circle cx="73.9" cy="371.5" r="1.1" fill="#acb4bd"/><circle cx="68.2" cy="371.5" r="1.1" fill="#acb4bd"/><path fill="#acb4bd" fill-rule="evenodd" d="M68 375.2h.5a3 3 0 0 0 5.1 0 .4.4 0 0 1 .6.5 3.8 3.8 0 0 1-6.3 0q-.1-.3.1-.5" clip-rule="evenodd"/></g><rect width="31.4" height="31.4" x="55.4" y="358.7" stroke="#e8ebee" stroke-width=".2" rx="15.7"/><path fill="#353a40" d="M100.2 376q1.8 0 2.9.5t1 1.3-1 1.3-3 .4q-1.8 0-2.8-.4t-1-1.3 1-1.3 2.9-.5m0 1.2-1.8.1q-.5.2-.5.5t.5.5l1.8.1 1.7-.1q.6-.2.6-.5t-.6-.5zm4.6-6.9h-9.2v-1.2h3.8v-.9h1.6v1h3.8zm-4.6.3q1.9 0 2.8.4 1 .5 1 1.2 0 .8-.8 1.1-.7.5-2.2.5v.6h4.3v1.2H95.1v-1.2h4.3v-.6q-1.5 0-2.2-.5t-.8-1q0-.9 1-1.3t2.8-.4m0 1-1.6.2q-.5.1-.5.4t.5.4l1.6.2 1.6-.2q.5 0 .5-.4 0-.3-.5-.4zm15 2.4h-1.5v-5.7h1.5zm-3.4-5.3q0 1.6-.5 2.7-.6 1-1.8 1.7-1.1.8-3 1.1l-.5-1.3q3.9-.6 4-2.9h-3.4v-1.3zm3.4 8.7h-5.9v.8h6.3v1.2h-7.9v-3h6v-.8h-6v-1.2h7.5zM127 375h-10.3v-1.3h4.4v-1h-3.2v-3.8h7.8v1.2h-6.2v1.4h6.3v1.3h-3.2v1h4.4zm-5.2.5 2.1.3q.9.2 1.3.7a1.5 1.5 0 0 1 0 2.2l-1.3.7q-1 .3-2 .3l-2.2-.3a3 3 0 0 1-1.4-.7q-.4-.5-.4-1.1t.4-1.1a3 3 0 0 1 1.4-.7q.9-.3 2.1-.3m0 1.2-1.7.2q-.6.3-.6.7t.5.7l1.8.2 1.7-.2q.6-.3.6-.7t-.6-.7z"/><path fill="#acb4bd" d="m310.2 366.5 1.8.3a3.6 3.6 0 0 0 3.5 5.9h.2v2.4h.1l1.4 2.8a1 1 0 0 1-.3 1.1l-.4.1H304a1 1 0 0 1-.9-.7v-.4l.1-.1 1.4-2.7V372a5.5 5.5 0 0 1 5.6-5.5m0 15a2.4 2.4 0 0 1-2.2-1.6h4.4a2.4 2.4 0 0 1-2.2 1.6"/><path fill="#ff4b33" d="M316 367.9a2 2 0 1 0-2.9 2.8 2 2 0 0 0 2.8-2.8"/><rect width="264.4" height="217.9" x="55.3" y="407.6" fill="#fff" rx="12.6"/><path fill="#353a40" d="M72.4 436.9q-1 0-2-.4-.8-.4-1.3-1t-.5-1.6h2.1q0 .4.3.7t.6.4l.8.2 1-.2.5-.5q.3-.3.2-.7t-.2-.7-.6-.5-1-.2h-1v-1.6h1l.8-.1q.5-.2.6-.5.3-.3.2-.7a1 1 0 0 0-.7-1.1l-.7-.2-.9.2q-.3 0-.6.4l-.2.7h-2q0-.8.5-1.5t1.3-1 1.9-.4q.9 0 1.8.3.8.4 1.2 1a3 3 0 0 1 .2 2.5l-.7.7-1 .4v.1q.8 0 1.3.4l.8.8.2 1.1q0 .9-.5 1.6-.5.6-1.4 1t-2 .4m15.3-4.2h-1.8v-.4h-2.3v-1h2.3v-5.9h1.8zm-9.7-2.9q4.4 0 7.1-.2l.1 1-3.4.4v1.7h-1.7v-1.6h-2.9l-.2-1.3zm9.7 6.2h-7.1v.7H88v1.2h-9.2v-3H86v-.6h-7.1V433h8.9zM81 425.6q1 0 1.7.2l1.1.7a1.4 1.4 0 0 1 0 2q-.4.4-1.1.6-.7.3-1.7.3t-1.7-.3-1-.6q-.5-.4-.5-1t.4-1 1.2-.7zm0 1.1-1.1.2q-.4.2-.4.6t.4.5l1.1.2q.8 0 1.2-.2t.4-.5-.5-.6zm11.1 8.5 3.6-3.3.9-.8.4-.7.2-.7q0-.5-.2-.8t-.6-.5l-.8-.2q-.8 0-1.1.4-.5.4-.5 1.2h-2q0-1 .5-1.7a3 3 0 0 1 1.3-1.1q.7-.4 1.8-.4t1.9.3 1.2 1 .5 1.6l-.2 1.2-.8 1.2-1.6 1.6L95 435h4.2v1.7h-7.1zm13-6.7h-5v-1.7h7.1v1.7l-4.2 8.3h-2.2zm6.3-2.7 1.7.3q.8.4 1.2 1 .5.7.5 1.6 0 .8-.5 1.4a3 3 0 0 1-1.2 1l-1.7.4a4 4 0 0 1-1.8-.3 3 3 0 0 1-1.2-1q-.4-.8-.4-1.5 0-.9.4-1.5a3 3 0 0 1 1.2-1 4 4 0 0 1 1.8-.4m0 1.4-.9.2a1.3 1.3 0 0 0-.8 1.3 1 1 0 0 0 .8 1.2l.9.2q.5 0 .8-.2.5-.1.6-.5.3-.3.2-.7 0-.5-.2-.8t-.6-.5zm7 4.5h-1.8v-6.3h1.8zm0 4h-6.8v.8h7.1v1.4H110v-3.5h6.7v-.8H110v-1.4h8.5z"/><rect width="21.3" height="21.3" x="258.5" y="420.6" stroke="#6b747e" stroke-opacity=".2" stroke-width=".8" rx="4.3"/><path stroke="#202428" stroke-linecap="round" stroke-linejoin="round" stroke-opacity=".4" stroke-width="1.1" d="m270.5 434-3.2-3 3.2-3.2"/><rect width="21.3" height="21.3" x="285.4" y="420.6" stroke="#6b747e" stroke-opacity=".2" stroke-width=".8" rx="4.3"/><path stroke="#202428" stroke-linecap="round" stroke-linejoin="round" stroke-opacity=".4" stroke-width="1.1" d="m294.1 434 3.2-3-3.2-3.2"/><rect width="31.6" height="31.6" x="67.9" y="461.2" fill="#f8f9fb" rx="15.8"/><path fill="#202428" fill-opacity=".2" d="M82 472.7q.8 0 1.3.2t.9.8q.3.5.3 1 0 .7-.3 1.2t-.9.7l-1.3.3q-.7 0-1.3-.3-.5-.2-.8-.7l-.4-1.1q0-.6.4-1.1l.8-.8zm0 .7-.8.2q-.5 0-.6.5-.3.3-.2.7t.2.7.6.5q.3.3.8.2t.9-.2.6-.5l.2-.7q0-.4-.2-.7-.3-.4-.6-.5-.4-.2-.9-.2m5.2 3.8h-.8v-4.9h.8zm0 2.8H82v1h5.7v.8H81v-2.4h5.4v-1H81v-.7h6.2z"/><rect width="31.6" height="31.6" x="102.5" y="461.2" fill="#f8f9fb" rx="15.8"/><path fill="#202428" fill-opacity=".2" d="M121.8 478h-.8v-.6h-2v-.5h2v-4.6h.8zm-7.2-2q3.3 0 5.6-.3v.5q-1.2.3-2.8.3v1.5h-.9v-1.5H114l-.1-.6zm7.2 4.3h-5.6v.9h6v.6h-6.8v-2h5.6v-.9h-5.6v-.6h6.4zm-4.8-7.8q.7 0 1.3.2l.8.5a1 1 0 0 1 0 1.5l-.8.5-1.3.2q-.7 0-1.2-.2t-.9-.5-.3-.8q0-.3.3-.7t.9-.5zm0 .6-.8.1q-.4 0-.6.3l-.2.4q0 .3.2.5l.6.3.8.1.8-.1q.4 0 .6-.3a1 1 0 0 0 0-.9l-.6-.3z"/><rect width="31.6" height="31.6" x="137.1" y="461.2" fill="#f8f9fb" rx="15.8"/><path fill="#202428" fill-opacity=".2" d="M156 476.4h1.5v.7H156v4.8h-.9v-9.6h.9zm-7.6 3h2.6v-1.2l-1-.2-.6-.6-.2-.9q0-.5.3-1l.8-.5 1.2-.3q.6 0 1.1.3t.8.6.3 1a2 2 0 0 1-.8 1.4l-1 .3v1q1.5 0 2.6-.3v.7l-2.8.3h-3.2zm6-5.2h-5.8v-.7h2.4v-1.2h.9v1.2h2.5zm-3 1.2-.7.1-.5.4-.2.6.2.6.5.4.8.1.7-.1.6-.4.1-.6-.1-.6-.6-.4z"/><rect width="31.6" height="31.6" x="171.7" y="461.2" fill="#f8f9fb" rx="15.8"/><path fill="#202428" fill-opacity=".2" d="M188 473q-.1.8.4 1.3t1.3 1q.8.4 1.7.6l-.3.6a6 6 0 0 1-2.7-1.2l-1-1q-.2.6-.8 1l-1.2.8-1.5.4-.3-.6 1.6-.6q.8-.4 1.4-1t.5-1.2v-.6h.8zm3.9 5.3h-4v3.5h-.8v-3.5h-4v-.7h8.8z"/><path fill="#f8f9fb" d="M206.3 477a15.8 15.8 0 1 1 31.6 0 15.8 15.8 0 1 1-31.6 0"/><path fill="#202428" fill-opacity=".2" d="M225.3 475.8h-2.8v1.3h4v.7h-8.8v-.7h4v-1.3h-2.9v-3.2h6.5zm-5.6-.6h4.8v-2h-4.8zm5.7 6.6h-.9v-2.4h-5.8v-.6h6.7z"/><path fill="#353a40" d="M241 477a15.7 15.7 0 1 1 31.5 0 15.8 15.8 0 1 1-31.6 0"/><path fill="#fff" d="m260 473.5-.3 2.9h1.4v.7h-8.8v-.7h6.5a10 10 0 0 0 .3-2.9h-5.7v-.7h6.5zm0 8.3h-6.6v-3.4h6.6zm-5.8-.7h5v-2h-5z"/><rect width="31.6" height="31.6" x="275.5" y="461.2" fill="#f8f9fb" rx="15.8"/><path fill="#202428" fill-opacity=".2" d="M294.7 478h-3v2h4v.7h-8.8v-.7h4v-2H288v-5h6.6v.8h-5.7v1.4h5.5v.7h-5.5v1.4h5.8z"/><path fill="#202428" fill-opacity=".7" d="M75.7 518h-.8v-3.4H73v-.6h2v-2.5h.8zm.2 2.2h-6v-2.7h.8v2H76zm-4.5-6.9.2 1.2.8 1 1.2.6-.4.6-1.4-.8-.8-1.2a4 4 0 0 1-2.3 2.2l-.4-.6 1.2-.7.8-1q.3-.6.3-1.3v-.4h-2v-.7h4.8v.7h-2zm8.2 1a4 4 0 0 0 .9 2.6q.4.6 1 .9l-.4.6q-.6-.4-1.1-1t-.8-1.5q-.2.9-.7 1.6t-1.1 1l-.5-.5q.7-.4 1-1 .5-.6.7-1.3l.3-1.5v-.4h-1.7v-.6h1.7v-1.4h.7v1.4h1.7v.6h-1.7zm5 6.1h-.7v-8.9h.7zm-1.8-.5h-.7v-4.2h-1.4v-.7H82v-3.3h.7zm12.4-5h-2.6v1.1h3.6v.7h-8v-.7h3.6v-1h-2.6v-3h6zm-5.3-.6h4.5v-1.8H90zm5.3 6.1h-.8v-2.2H89v-.6h6.2zm9.8-1h-8.2v-.7h2.3v-2.2h-1.5v-.6H99v-3h-1.5v-.6h6.7v.7h-1.4v2.9h1.4v.6h-1.6v2.2h2.4zm-3-3.5v-3h-2.3v3zm-.1 2.8v-2.2h-2v2.2zm10.4-6h-3.2v2.3h.4l3.7-.3v.6l-1.6.3h-3.2V512h4zm2.6.7h1.4v.6h-1.4v2h-.8v-4.5h.8zm0 5.2H110v1h5.2v.7h-6V518h5v-1h-5v-.6h5.7zm4.8-5.7.3 1.2q.3.6.8 1t1.1.6l-.4.7q-.8-.3-1.3-.9-.6-.5-.8-1.2a4 4 0 0 1-2.3 2.3l-.4-.6 1.2-.7.8-1 .2-1.4v-.9h.8zm4.3 3.9h-.7V514h-2v-.7h2v-1.9h.8zm-3 .2 1.7.2 1 .6q.4.4.4 1t-.4.8q-.4.5-1 .6l-1.6.2q-1 0-1.6-.2-.7-.1-1-.6-.4-.3-.4-.9 0-.4.4-.9l1-.6zm0 .7h-1l-.8.5a1 1 0 0 0 0 1q.2.3.7.4l1.2.2 1.2-.2q.5 0 .7-.3a.7.7 0 0 0 0-1.1q-.2-.3-.7-.4zm11.6-1.4h-2.8v2.3h3.7v.7h-8.1v-.7h3.6v-2.3h-2.6v-4h6v.6h-5.2v2.8h5.4z"/><rect width="199.1" height="7.9" x="67.9" y="528.3" fill="#f8f9fb" rx="3.9"/><path fill="#19c3fc" d="M279 531.4q-1 0-1.8-.6t-1.3-1.6-.4-2.4q0-1.5.4-2.5t1.3-1.6 1.9-.5q1 0 2 .5.8.6 1.2 1.6t.4 2.5-.4 2.4q-.4 1.1-1.3 1.6t-2 .6m0-1.6q.6 0 1-.3l.6-1 .2-1.7q0-1.5-.5-2.3t-1.2-.8-1.3.8-.4 2.3q0 1 .2 1.7t.6 1 .9.3"/><path fill="#202428" fill-opacity=".4" d="M288.2 532.4h-1l2.5-9.4h1zm5.8-2 2.7-2.8 1.1-1.4.2-.6a1 1 0 0 0-.7-1.1l-.8-.2q-.4 0-.7.2-.3 0-.5.5l-.2.7H294q0-.7.3-1.3.3-.5 1-.8.5-.3 1.3-.3.7 0 1.3.3t.9.8.3 1.1q0 .5-.2.9l-.5 1-1.2 1.1-1.6 1.6v.1h3.6v1H294zm9 1-1.3-.3-1-.8-.3-1.1h1.2l.2.6.5.4.8.1.8-.2.6-.5.2-.9q0-.5-.2-.8l-.6-.6-.9-.2q-1 0-1.4.7h-1l.4-4.4h4.4v1H302l-.3 2.2h.1l.7-.4.8-.1q.7 0 1.3.3.6.4 1 1l.2 1.3q0 .8-.3 1.4-.4.6-1 .9z"/><path fill="#202428" fill-opacity=".7" d="M72.3 558.7q1 0 1.7.3.8.2 1.2.8.4.5.4 1.2t-.4 1.1q-.3.6-1 .9t-1.5.3v1.9h3.7v.6h-8.1v-.6h3.6v-1.9q-.8 0-1.4-.3-.7-.3-1-.9L69 561q0-.7.4-1.2t1.2-.8 1.6-.3m0 .6q-.7 0-1.3.2l-.8.6q-.4.4-.4.9t.4.9l.8.6 1.3.2q.8 0 1.3-.2l1-.6.2-1q0-.3-.3-.8l-.9-.6zm11.9 1.6H78v-2.7h.8v2h5.3zm1 1.5H77v-.6h8zm-1.1 2.9h-5.3v1h5.6v.6H78v-2.2h5.3v-.9H78v-.6h6zm11.7 1.7H95v-9h.8zm-1.8-.5h-.8v-2.9h-1.4q-.3.7-.7 1t-1 .4q-.5 0-1-.4t-.6-1q-.3-.7-.3-1.7t.3-1.6.6-1q.5-.5 1-.5t1 .4l.7 1h1.4v-2h.8zm-3.9-7q-.3 0-.6.4l-.4.8-.1 1.2.1 1.3q0 .5.4.8l.6.3q.4 0 .7-.3l.4-.8.1-1.3-.1-1.2-.4-.8zm2 1.5v2h1.2v-2zm12.2 2.5h-.8V561h-1.8v-.7h1.8V558h.8zm-3 .3q1 0 1.7.2.6.1 1 .5.3.4.3 1t-.3.8q-.4.5-1 .6l-1.6.2q-1 0-1.6-.2-.7-.1-1-.6-.4-.3-.4-.9 0-.4.3-.9l1-.5q.7-.2 1.7-.2m0 .6-1.1.1q-.6 0-.8.4-.3.2-.2.5t.2.6l.8.3 1.2.2q.6 0 1.1-.2.5 0 .8-.3l.3-.6q0-.3-.3-.5l-.8-.4zm-1.3-4.6q0 .6.3 1.1t.8 1 1.1.6l-.4.7-1.3-.8q-.6-.6-.9-1.3a4 4 0 0 1-2.2 2.3l-.4-.6 1.1-.7.8-1 .3-1.3v-.3h-2v-.7h4.8v.7h-2zm10.8 2H109v1.2l2.4-.2.1.6q-2.4.3-5.7.3l-.1-.6h2.5v-1.4h-1.7v-3h4.2v.7h-3.4v1.7h3.5zm2.2 3h-.8v-6.6h.8zm.3 2H107v-2.4h.8v1.8h5.3zm6.7-5.9q0 .8.3 1.5t.9 1.3q.4.5 1.2.8l-.5.6q-.8-.4-1.4-1l-1-1.7q-.2 1-.9 1.8t-1.4 1.2l-.4-.7q.6-.3 1.1-.9.6-.5 1-1.4l.3-1.5v-1.2H117v-.6h5v.6h-2.1zm4.1 6.2h-.8v-9h.8zm3.2-2.6h4.5v-1.2h.8v3.7h-6v-3.7h.7zm4.5 1.8V565h-4.5v1.2zm.8-7-.3 2.5h1.3v.7h-8.1v-.7h6l.3-2.6h-5.3v-.6h6zm3.7-.6q.7 0 1 .3.6.3.8.8t.3 1q0 .6-.3 1.1l-.7.8-1 .2q-.7 0-1.1-.2l-.8-.8-.2-1q0-.7.2-1.1t.8-.8zm0 .7a1 1 0 0 0-1.1.7l-.2.7q0 .5.2.8 0 .3.4.5l.7.2.7-.2.5-.5a2 2 0 0 0 0-1.5l-.5-.5zm5.5 4h-.8V561h-1.2v2.3h-.7v-5h.7v2h1.2v-2.2h.8zm0 3.7h-.8v-2.5h-5.3v-.6h6z"/><g filter="url(#e)"><rect width="9.5" height="9.5" x="240.4" y="557.9" fill="#fbe904" rx="4.7" shape-rendering="crispEdges"/><rect width="9.3" height="9.3" x="240.5" y="558" stroke="#c2ac30" stroke-width=".2" rx="4.7" shape-rendering="crispEdges"/><rect width="7.9" height="7.9" x="241.2" y="558.7" fill="#fdd540" rx="3.9"/><path fill="#eaa001" d="M246.6 561.2q.3 0 .3.5l-.2.7h.3a.3.3 0 0 1 0 .7h-.4l-.2.6a.5.5 0 0 1-.9 0l-.3-1.4-.4 1.4q-.1.4-.5.4l-.4-.4-.2-.6h-.4a.3.3 0 0 1 0-.7h.3l-.2-.7a.3.3 0 1 1 .6-.2l.4 1.7.3-1.6a.4.4 0 0 1 .8 0l.4 1.6.3-1.7q0-.2.4-.3"/></g><path fill="#202428" fill-opacity=".7" d="M256 566.3q-.7 0-1.3-.5t-.8-1.2l-.3-2q0-1.2.3-2t.8-1.3 1.4-.5 1.4.5.8 1.2q.3 1 .3 2l-.3 2q-.3.9-.8 1.3t-1.4.5m0-.8q.6 0 1-.4l.6-1 .1-1.6-.1-1.5-.6-1q-.4-.4-1-.4t-.8.3q-.4.4-.6 1l-.2 1.6q0 1 .2 1.6t.6 1 .9.4m10.7-.7h-.8v-.9h-1.8v-.5h1.8V558h.8zm.2 2h-6.3v-2.6h.8v2h5.5zm-7.6-4.6 5.8-.2v.5l-2.4.3v1.7h-.8v-1.7h-2.5zm3-3.8 1 .2.8.6q.3.3.3.8t-.3.8-.7.6l-1.2.1-1.1-.1q-.6-.2-.8-.6t-.3-.8q0-.5.3-.8l.8-.6zm0 .6q-.5 0-.8.2-.4 0-.6.3l-.1.5.1.5.6.3.7.2q.5 0 .8-.2.3 0 .5-.3l.2-.5q0-.3-.2-.5t-.5-.3z"/><path fill="#6b747e" fill-opacity=".2" d="M274.4 558.7h.8v7.9h-.8z"/><g filter="url(#f)"><rect width="9.5" height="9.5" x="281.5" y="557.9" fill="#95e3fe" rx="4.7" shape-rendering="crispEdges"/><rect width="9.3" height="9.3" x="281.5" y="558" stroke="#19c3fc" stroke-width=".2" rx="4.7" shape-rendering="crispEdges"/><rect width="7.9" height="7.9" x="282.2" y="558.7" fill="#47cffd" rx="3.9"/><path stroke="#128ab3" stroke-linecap="round" stroke-linejoin="round" stroke-width=".6" d="M285.2 561.7h2l-2 2h2"/></g><path fill="#202428" fill-opacity=".7" d="M297.1 566.3q-.8 0-1.3-.5t-.9-1.2l-.3-2q0-1.2.3-2t.9-1.3 1.3-.5q.9 0 1.4.5.6.5.9 1.2.3 1 .3 2l-.3 2q-.3.9-.9 1.3t-1.4.5m0-.8q.6 0 1-.4.3-.3.5-1l.2-1.6q0-.9-.2-1.5t-.6-1-.9-.4l-.9.3-.5 1q-.2.7-.2 1.6t.2 1.6.5 1 1 .4m3.7-6.6h2.5q.9 0 1.4.3t.8.8l.3 1.2q0 .8-.3 1.2l-.8.8q-.6.3-1.4.3h-1.6v2.7h-.9zm2.5 3.8q.8 0 1.2-.4t.4-1q0-.8-.4-1.2t-1.2-.4h-1.6v3z"/><g clip-path="url(#g)"><rect width="239.2" height="34.7" x="67.9" y="578.1" fill="#f8f9fb" rx="9.5"/><path fill="#353a40" d="M160 591.5h-3.6v2.5h.1l4.3-.3.2.8-2 .3-2.9.1h-.8v-4.3h4.6zm3 .7h1.5v.9H163v2.2h-1.1V590h1zm0 6.2h-5.6v1h6v.9h-7v-2.8h5.5v-.9h-5.6v-.9h6.7zm5.6-6.8a3 3 0 0 0 1.2 2.5q.5.6 1.3.8l-.6.8q-.8-.3-1.5-.9l-1-1.3a4 4 0 0 1-2.5 2.5l-.6-.8 1.4-.9a4 4 0 0 0 1.2-2.7v-1h1.1zm5 4.6h-1.1V593h-2.2v-1h2.2v-2h1zm-3.5.3q1 0 1.9.2t1.2.7.4 1-.4 1q-.5.6-1.2.8l-2 .2q-1 0-1.8-.2t-1.2-.7-.4-1 .4-1.1q.4-.5 1.2-.7.8-.3 1.9-.2m0 .8q-1.2 0-1.8.3t-.6.8.6.8 1.8.3 1.8-.3.6-.8-.6-.8-1.8-.3m16-6-.4 3h1.5v1h-9.5v-1h7l.2-2.8h-6v-1h7.1zm0 9h-7.2v-3.7h7.1zm-6.1-.9h5v-2h-5zm10.3-8.7q.6 0 1.2.3t.8.9.3 1.3-.3 1.3q-.2.5-.8.8l-1.2.3q-.7 0-1.3-.3l-.8-.8q-.3-.6-.3-1.3t.3-1.3a2 2 0 0 1 2-1.2m0 1-.8.1-.4.6q-.2.3-.2.8t.2.8q0 .3.4.5l.8.2a1 1 0 0 0 1.2-.7 2 2 0 0 0 0-1.6l-.5-.6zm6.3 4.5h-1v-2.6h-1.2v2.6h-1v-6h1v2.5h1.2V590h1zm0 4.2h-1v-2.8h-6v-.8h7zm12.2-7.9h1.5v1h-1.6v2.6h-1v-6h1zm-6.7-.4h2.7v-1.5h1v4.9H201v-4.9h1zm2.7 2.5V593H202v1.6zm4 3h-5.6v1.8h5.8v.9H202v-3.7h6.7zm10.5 2.8h-1.1v-10.3h1.1zm-3-9.2a8 8 0 0 1-1.2 4.2q-1.2 2-3.7 3.1l-.6-.9a8 8 0 0 0 3-2.3q1.2-1.4 1.3-3.3h-3.8v-.8z"/></g><rect width="264.4" height="34.7" x="55.3" y="639.6" fill="#acb4bd" fill-opacity=".1" rx="6.3"/><path fill="#fff" d="M58.4 649.1c0-3.5 2.9-6.3 6.4-6.3h114.8c3.5 0 6.3 2.8 6.3 6.3v15.8c0 3.5-2.8 6.3-6.3 6.3H64.8a6.3 6.3 0 0 1-6.4-6.3z"/><path fill="#353a40" d="m115.1 652.9.2 1.2.7 1q.5.5 1.2.8l-.8 1.2a4 4 0 0 1-2-1.9q-.3.8-.9 1.4l-1.3.8-.8-1.2q.8-.3 1.2-.8a4 4 0 0 0 1-2.5v-1.3h1.5zm6 4.9h-1.4v-2.9h-1v2.5h-1.4v-6.3h1.4v2.6h1v-2.8h1.5zm-3.8.1q1.2 0 2 .3 1 .3 1.4.7a1.5 1.5 0 0 1 0 2.2l-1.3.8-2 .2q-1.3 0-2.1-.2a3 3 0 0 1-1.4-.8q-.5-.4-.5-1t.5-1.2a3 3 0 0 1 1.4-.7q.8-.3 2-.3m0 1.2q-1 0-1.7.2t-.6.7q0 .5.6.7.6.3 1.7.2l1.7-.2q.6-.2.6-.7t-.6-.7zm14-5.5h1.4v1.3h-1.4v2.6h-1.6V651h1.6zm0 6.8h-6v.6h6.3v1h-8v-2.5h6v-.5h-6v-1h7.7zm-8.3-4 1.9-.1v-.5q-.9 0-1.5-.5t-.5-1 .3-.7q.4-.4 1-.5.6-.3 1.5-.2t1.4.2 1 .5q.3.3.3.7 0 .6-.5 1a3 3 0 0 1-1.5.5v.4q1.6 0 2.8-.2v1q-1.5.3-3.2.3h-3.7l-.1-1zm5.9-3.7h-6.5v-1h2.5v-.9h1.5v.8h2.5zm-3.2 1.2h-1l-.3.4q0 .3.3.4l1 .1h.9q.3-.2.3-.5 0-.4-1.2-.4"/><path fill="#202428" fill-opacity=".7" d="M248.8 653h-6.6v-.9h2.8V651h1.1v1.2h2.7zm-3.3.5q.9 0 1.4.3l1 .7q.3.5.3 1 0 .7-.3 1.1l-1 .7q-.6.3-1.4.3t-1.4-.3l-1-.7-.3-1q-.1-.6.4-1.1.3-.4 1-.7.5-.3 1.3-.3m0 1h-.8l-.5.5-.2.6q0 .5.4.8t1.1.3l1.2-.3q.4-.3.4-.8t-.2-.6l-.5-.4zm5.4-.5h1.6v1H251v2.9h-1.2v-7h1.2zm0 8h-1.2v-2.6h-6v-1h7.2zm4.5-3.2h5.2v-1.2h1.2v4.3h-7.6v-4.3h1.2zm5.2 2.2v-1.3h-5.2v1.3zm2.5-4H253v-1h10zm-4.5-5.4q0 .6.5 1.2t1.5 1q.9.5 1.9.5l-.4 1a7 7 0 0 1-2.5-.8q-1-.7-1.6-1.5-.5.8-1.6 1.5a7 7 0 0 1-2.4.8l-.5-1q1 0 2-.5t1.4-1q.5-.6.5-1.2v-.5h1.2z"/><path fill="#fff" d="M55.3 694.9c0-7 5.6-12.6 12.6-12.6h239.2c7 0 12.6 5.6 12.6 12.6v244.9c0 7-5.6 12.6-12.6 12.6H67.9c-7 0-12.6-5.6-12.6-12.6z"/><path fill="#353a40" d="m71.8 699.8.3 1.2q.1.6.7 1 .4.5 1.2.8l-1 1.2a4 4 0 0 1-2-1.9q-.3.8-.9 1.3-.5.6-1.3 1l-.8-1.3q.8-.3 1.2-.8a4 4 0 0 0 1-2.5v-1.3h1.5zm6 4.9h-1.4v-2.9h-1v2.5H74V698h1.5v2.5h.9v-2.7h1.5zm-3.7.1q1 0 2 .3.8.2 1.4.7a1.5 1.5 0 0 1 0 2.2 3 3 0 0 1-1.4.8l-2 .2q-1.2 0-2.1-.2a3 3 0 0 1-1.4-.8q-.4-.4-.4-1t.4-1.2a3 3 0 0 1 1.4-.7q1-.3 2-.3m0 1.2q-1.2 0-1.8.2t-.5.7.5.7 1.8.2l1.7-.2q.6-.3.6-.7t-.6-.7zm13.9-5.6h1.4v1.4H88v2.6h-1.6v-6.6H88zm0 7h-6v.5h6.4v1h-8v-2.5h6v-.6h-6v-1H88zm-8.3-4.2h2v-.5q-1-.1-1.6-.5-.5-.4-.5-1 0-.4.4-.7.3-.4 1-.5.5-.2 1.4-.2t1.4.2q.7 0 1 .4t.3.8q0 .6-.5 1-.5.3-1.4.5v.4l2.7-.2.1 1-3.2.3H79l-.1-1zm5.9-3.7h-6.4v-1h2.4v-.8h1.6v.8h2.4zm-3.2 1.3h-1q-.3.2-.3.4t.4.4l.9.1.9-.1q.3 0 .3-.4t-1.2-.4m19 1.4h-3v1h4.4v1.3H92.5v-1.2h4.3v-1.1h-3v-4h7.7zm-6-1.3h4.5v-1.4h-4.6zm6.1 8.1H100v-2.4h-6.2v-1.2h7.8zm12-1.2h-10.2v-1.3h2.5v-2.1H104V703h1.5v-3H104v-1.3h8.6v1.3H111v3.1h1.5v1.3H111v2.1h2.6zm-4-4.7V700h-2.3v3.1zm-.1 3.4v-2.1h-2v2.1z"/><path fill="#19c3fc" d="m121 708-1.6-.3q-.8-.4-1.2-1t-.4-1.3h1.8l.2.6.5.4.8.1.8-.2.5-.5.2-.8-.2-.9-.5-.5-.9-.3q-1 0-1.4.8H118l.4-5.1h5.5v1.5h-4l-.2 2.2.8-.5 1-.2q.9 0 1.5.3.7.4 1 1.1t.4 1.5a3 3 0 0 1-1.6 2.7q-.7.4-1.7.4"/><path fill="#202428" fill-opacity=".4" d="M75.8 749.4h-3.4v2.7h-.8v-2.7h-3.4v-.7h7.6zm-5.8-4.2h4v-1h.8v3.5h-5.6v-3.6h.8zm4 1.8v-1h-4v1zm9.8 4h-7.6v-.7h3.4v-1.9H77v-4h6v4h-2.4v2h3.3zm-5.8-3.3h4v-2.5h-4zm13.1.8h-.8v-4.7h.8zm-5.4-1.3 3.7-.4.1.7a18 18 0 0 1-4 .4h-.7v-3.6h.9zM91 752h-5.4v-3.1H91zm-4.5-.7h3.7v-1.8h-3.7zm7.8-6.5-.2 2-.4 1.7-.8 1.7-.7-.4 1-2 .3-2.3h-1.1v-.7zm1.8 0L96 747h1v-3h.8v7.7H97v-4h-1a7 7 0 0 1-1.2 3l-.7-.4q.5-.7.8-1.5l.4-1.6.1-1.7h-.8v-.7zm3.3 7.3h-.9v-8.3h.9zm10.1 0h-.8v-8.3h.8zm-1.6-.4h-.9V749h-1q-.1.6-.6 1-.4.3-1 .3-.4 0-.9-.4-.4-.3-.6-1l-.2-1.5q0-.9.2-1.6.2-.6.6-1 .4-.3 1-.3.4 0 .9.3t.6 1h1.2V744h.9zm-3.6-6.4-.6.2-.3.8-.1 1 .1 1.2q0 .5.3.7a1 1 0 0 0 1 0q.4-.2.4-.7l.2-1.1q0-.7-.2-1.1 0-.5-.3-.8zm1.7 1.2v1.8h1v-1.8zm7.1-2.1q.7 0 1.2.2a2 2 0 0 1 .8 2.8l-.8.7q-.5.3-1.2.2t-1.1-.2l-.9-.7-.2-1q0-.6.2-1t.9-.8zm0 .7-.7.2-.5.4-.2.7.2.6.5.4.7.2q.4 0 .7-.2.3 0 .5-.4.3-.3.2-.6a1 1 0 0 0-.7-1.1zm4.2 7h-1v-8.3h1zm-6.8-2.5 5.4-.3v.6l-2.5.4h-2.8z"/><path fill="#353a40" d="M77.8 768h-4.3v3.4h-1V768h-4.2v-.8h9.5zm-7.2-5.2h4.9v-1.3h1v4.5h-7v-4.5h1zm4.9 2.3v-1.4h-5v1.4zm12.4 5h-9.5v-.9h4.1v-2.4h-3V762h7.2v5h-3v2.3h4.2zm-7.4-4.1h5.1v-3.2h-5zm16.5 1h-1v-6h1zm-6.8-1.7 4.7-.5.1 1a23 23 0 0 1-5 .4h-1v-4.5h1.2zm6.8 6h-6.8v-3.9H97zm-5.7-.9H96v-2.1h-4.7zm9.8-8.1q0 1.4-.2 2.4 0 1.2-.5 2.3-.3 1-1 2l-1-.4q1-1.2 1.3-2.5t.4-2.9h-1.4v-.9zm2.3 0-.1 2.8h1.2v-3.8h1v9.6h-1v-5H103a9 9 0 0 1-1.4 3.8l-.9-.5 1-1.8.5-2 .1-2.2h-1v-.9zm4 9.1h-1v-10.3h1zm12-7.2h1.6v.9h-1.5v3.6h-1.1V761h1zm.5 7h-7V768h1.1v2.4h6zm-5.7-9.4q.8 0 1.4.3a3 3 0 0 1 1.4 2.3 3 3 0 0 1-1.4 2.2l-1.4.3-1.4-.3q-.6-.3-1-1-.3-.5-.3-1.2a2.4 2.4 0 0 1 1.3-2.3zm0 1q-.5 0-.8.2a2 2 0 0 0-.8 1.4 2 2 0 0 0 .8 1.4l.8.2 1-.2.5-.6q.2-.3.2-.8t-.2-.9-.6-.5-.9-.3M131 768h-4.3v3.4h-1V768h-4.2v-.8h9.5zm-7.2-5.2h4.9v-1.3h1v4.5h-7v-4.5h1zm4.9 2.3v-1.4h-5v1.4zm11.5 3.5H139v-7.5h1zm.3 2.6h-7.1V768h1.1v2.4h6zm-6-9.4q.8 0 1.5.3a3 3 0 0 1 1.3 2.2 3 3 0 0 1-1.3 2.3l-1.4.3-1.5-.3a2.5 2.5 0 0 1 0-4.5zm0 1q-.5 0-.8.2a2 2 0 0 0-.8 1.3q0 .6.2.9l.6.6.9.2.8-.2.6-.6q.3-.4.2-.9a2 2 0 0 0-.8-1.3q-.4-.3-.8-.3m10.8 1q0 .8.3 1.7t.9 1.6 1.4 1l-.7 1q-.8-.5-1.5-1.3t-1-1.9q-.3 1.1-1 2t-1.5 1.4l-.7-1q.8-.4 1.4-1a5 5 0 0 0 1.3-3.6V762h1zm4.4 1.4h1.7v1h-1.7v5.2h-1V761h1zm13.2 1.7h-7.3V762h7.2v.9h-6v3h6zm1 3.2h-9.4v-1h9.4zm9.2 1.4h-1V761h1zm-3.1-5.7H166v2.3l5-.4v.9a25 25 0 0 1-5.2.4h-.9v-4h3.8v-2.1H165v-.9h4.9zm13.2 5.6h-1V761h1zm-3-9.2a8 8 0 0 1-1.2 4.3q-1.2 1.8-3.7 3l-.6-.8a8 8 0 0 0 3.1-2.4q1-1.5 1.2-3.2h-3.8v-1z"/><path fill="#cfd4da" d="m75.7 782 .5.1.9 1h1.3a1 1 0 0 1 1 .9v6.4a1 1 0 0 1-.9 1H70a1 1 0 0 1-1-1V784a1 1 0 0 1 1-1h1.4l.8-1 .5-.1zm-1.5 2.3a2.6 2.6 0 1 0 0 5.3 2.6 2.6 0 0 0 0-5.3m0 1a1.6 1.6 0 0 1 1.5 2.3 2 2 0 0 1-1.5 1 1.6 1.6 0 1 1 0-3.2"/><path fill="#202428" fill-opacity=".4" d="M86.9 784.8q0 .8.2 1.4l.8 1.3 1 .9-.5.7-1.2-1-.7-1.5q-.3.9-.9 1.6-.5.6-1.2 1l-.5-.7q.7-.3 1-.9a4 4 0 0 0 1.1-2.8v-1.4h.9zm3.6 1.2h1.3v.7h-1.3v4.3h-1v-8.3h1zm4.6-1.6q0 .6.3 1 .2.6.7 1l1 .5-.4.7-1.2-.7q-.6-.5-.8-1.1-.3.8-.8 1.2l-1.3.8-.5-.7 1.1-.7q.5-.3.8-.9l.2-1v-.4h-1.8v-.8h4.5v.8h-1.8zm3.8 4.3H98v-6h1zm.3 2.1h-5.7v-2.6h.9v1.9h4.8zm9.9-2h-.9v-6.1h.9zm.2 2h-5.6v-2.7h.9v2h4.7zm-4.7-7.5q.6 0 1.1.2a2 2 0 0 1 1.1 1.8 2 2 0 0 1-1 1.8l-1.2.3q-.6 0-1.1-.3a2 2 0 0 1 0-3.6q.5-.2 1.1-.2m0 .7q-.4 0-.7.2a1 1 0 0 0-.7 1.1l.2.7.5.4.7.2q.4 0 .7-.2.3 0 .5-.4l.1-.7-.1-.7-.5-.4zm13.2 3.3h-7.6v-.7h7.6zm-3.8.6 1.6.2 1 .5q.3.4.3.9t-.4.8-1 .5l-1.5.2-1.5-.2q-.7-.2-1-.5l-.4-.8q0-.5.4-.9.3-.3 1-.5zm0 .7-1.5.2q-.5.3-.5.7t.5.6l1.5.2 1.5-.2q.5-.3.5-.6 0-.4-.5-.7zm3.1-4.8h-2.5q0 .4.4.8l1 .5 1.4.4-.3.7-1.3-.3-1.1-.6-.7-.8q-.2.5-.7.8l-1 .6-1.3.3-.4-.7q.8 0 1.4-.4l1-.5q.4-.4.4-.8H111v-.7h6.2z"/><path fill="#6b747e" fill-opacity=".2" d="M125 782.7h.8v7.9h-.8z"/><g filter="url(#h)"><rect width="11.1" height="11.1" x="132.1" y="781.2" fill="#95e3fe" rx="5.5" shape-rendering="crispEdges"/><rect width="10.9" height="10.9" x="132.2" y="781.3" stroke="#19c3fc" stroke-width=".2" rx="5.4" shape-rendering="crispEdges"/><rect width="9.2" height="9.2" x="133" y="782.1" fill="#47cffd" rx="4.6"/><path stroke="#128ab3" stroke-linecap="round" stroke-linejoin="round" stroke-width=".7" d="M136.5 785.6h2.3l-2.3 2.2h2.3"/></g><path fill="#202428" fill-opacity=".4" d="M149.2 790.3q-.6 0-1.1-.3l-.8-.6q-.3-.4-.4-1h1l.2.6.5.3.6.1.7-.1.5-.5.2-.8q0-.4-.2-.7l-.5-.5-.8-.2q-.8 0-1.1.6h-1l.4-3.7h3.8v.9h-3l-.1 1.8.6-.3.7-.1q.6 0 1.1.3t.8.8.3 1.1-.3 1.2-.9.8q-.4.3-1.2.3m5.6 0q-.8 0-1.3-.4t-.8-1.2-.3-1.9.3-1.8.8-1.2 1.3-.4 1.4.4q.5.5.8 1.2.3.8.3 1.8 0 1.2-.3 1.9-.3.8-.8 1.2t-1.4.4m0-.9q.5 0 .8-.3t.5-.9l.2-1.4q0-.8-.2-1.4l-.5-.8-.8-.3-.7.3q-.4.3-.5.8l-.2 1.4q0 .9.2 1.4 0 .6.5 1zm5.7.9q-.8 0-1.3-.4t-.8-1.2-.3-1.9.3-1.8.8-1.2 1.3-.4 1.3.4q.6.5.9 1.2.3.8.3 1.8 0 1.2-.3 1.9-.3.8-.9 1.2-.5.4-1.3.4m0-.9q.5 0 .8-.3t.5-.9l.2-1.4q0-.8-.2-1.4l-.5-.8-.8-.3q-.4 0-.7.3-.4.3-.5.8l-.2 1.4q0 .9.2 1.4 0 .6.4 1zm4.5-5.9h2.4q.8 0 1.3.3l.8.7.2 1.2q0 .6-.2 1-.3.6-.8.9l-1.3.2H166v2.4h-1zm2.3 3.5q.7 0 1-.4.4-.3.4-1 0-.5-.3-.9-.4-.3-1.1-.3H166v2.6z"/><rect width="48.6" height="25.3" x="258.5" y="754.6" fill="#19c3fc" rx="6.3"/><path fill="#fff" d="M273 769.2h-1v-6.6h1zm.3 2.2h-6.1v-3h1v2.2h5.1zm-5.1-8.2 1.2.3a2 2 0 0 1 1.2 2 2 2 0 0 1-1.2 2l-1.2.2q-.7 0-1.2-.3a2.2 2.2 0 0 1 0-3.9q.4-.3 1.2-.3m0 .9-.8.1a1 1 0 0 0-.7 1.3l.2.7.5.5.8.2.7-.2.5-.5q.3-.4.2-.7a1.4 1.4 0 0 0-.7-1.3zm14.3 3.5h-8.2v-.8h8.2zm-4.1.7q1 0 1.7.2.6.1 1 .6.4.3.4.9 0 .5-.4.8t-1 .6l-1.7.2q-1 0-1.7-.2-.6-.1-1-.6-.4-.3-.4-.8t.4-1l1-.5zm0 .8q-1 0-1.6.2t-.6.7.6.6l1.6.2q1 0 1.6-.2t.5-.6-.5-.7-1.6-.2m3.4-5.3H279q0 .5.5.8l1 .7q.7.3 1.6.3l-.4.8q-.8 0-1.4-.4-.7-.1-1.2-.6l-.7-.8-.7.8q-.5.4-1.2.6l-1.4.4-.4-.8q.8 0 1.5-.3l1.1-.6q.4-.4.5-.9H275v-.7h6.7zm8.2 2.5h1.5v.7H290v4.6h-1v-9h1zm-1.7-1.5H283v-.8h2.2v-1.3h1v1.3h2zm-2.6.7q.6 0 1.1.2a2 2 0 0 1 1.1 1.8q0 .7-.3 1.1l-.8.8-1.1.2q-.7 0-1.2-.2a2 2 0 0 1-1-1.9q0-.6.2-1l.8-.8zm0 .7-.7.2-.5.5-.2.6.2.7.5.5.7.1.6-.1.5-.5.2-.7-.2-.6q-.1-.3-.5-.5zm13.5 5.4h-1v-9h1zm-2.7-8a7 7 0 0 1-1 3.7q-1 1.6-3.2 2.7l-.5-.8a7 7 0 0 0 2.7-2q1-1.3 1-2.9h-3.2v-.7z"/><path fill="#202428" fill-opacity=".4" d="M75.8 820.2h-3.4v2.7h-.8v-2.7h-3.4v-.7h7.6zM70 816h4v-1h.8v3.6h-5.6V815h.8zm4 1.9v-1.1h-4v1zm9.8 4h-7.6v-.7h3.4v-2H77v-3.9h6v4h-2.4v1.9h3.3zm-5.8-3.4h4V816h-4zm13.1.8h-.8v-4.7h.8zm-5.4-1.3 3.7-.4.1.8a18 18 0 0 1-4 .4h-.7V815h.9zm5.4 4.8h-5.4v-3.1h5.4zm-4.5-.7h3.7v-1.7h-3.7zm7.8-6.5-.2 2-.4 1.8-.8 1.6-.7-.4a6 6 0 0 0 1-2l.3-2.3h-1.1v-.7zm1.8 0-.1 2.2h1v-3h.8v7.7h-.8v-4H96a7 7 0 0 1-1.2 3l-.7-.4.8-1.4.4-1.6.1-1.8h-.8v-.7zm3.3 7.3h-.9v-8.3h.9zm10.1 0h-.8v-8.3h.8zm-1.6-.4h-.9v-2.7H106q-.1.7-.6 1t-1 .3-.9-.3q-.4-.4-.6-1l-.2-1.6q0-.9.2-1.5t.6-1 1-.4l.9.3q.4.4.6 1h1.2v-1.8h.9zm-3.6-6.4-.6.3-.3.7-.1 1.1.1 1.1q0 .6.3.8a1 1 0 0 0 1 0q.4-.2.4-.8l.2-1q0-.7-.2-1.2 0-.5-.3-.7zm1.7 1.2v1.8h1v-1.8zm7.1-2q.7 0 1.2.2a1.9 1.9 0 0 1 0 3.4q-.5.3-1.2.3t-1.1-.3l-.9-.7-.2-1q0-.6.2-1t.9-.7 1.1-.3m0 .7-.7.1-.5.5-.2.6.2.6.5.5.7.1.7-.1.5-.5q.3-.3.2-.6a1 1 0 0 0-.7-1q-.3-.2-.7-.2m4.2 7h-1v-8.4h1zm-6.8-2.6 5.4-.3v.7l-2.5.3h-2.8z"/><path fill="#353a40" d="M76.4 836.1H78v1h-1.6v5.2h-1.1v-10.4h1zm-2-1.7h-6.2v-.9h2.6v-1.4h1v1.4h2.6zm-3 .8q.7 0 1.3.3a2 2 0 0 1 1.2 2.1q0 .7-.3 1.3-.3.5-1 .8-.5.3-1.2.3-.8 0-1.4-.3a2 2 0 0 1-1.2-2.1q0-.7.3-1.2t1-.9 1.3-.3m0 .9q-.5 0-.8.2-.5.2-.6.5l-.2.8q0 .5.2.8t.6.5l.8.2q.4 0 .7-.2.4-.2.6-.5l.2-.8q0-.5-.2-.8t-.6-.5zm15.3-1h-6v1.2h6.2v.9h-7.4v-3h6.1v-1h-6.1v-.9h7.2zm1.1 4h-4.2v3.2h-1v-3.2h-4.2v-1h9.4zm10.1-1.3h-9.5v-.8h4.2v-1.1h-3v-3.5h7.1v.9h-6v1.7h6.1v.9h-3v1h4.1zm-4.7.7q1 0 1.9.2t1.2.7.4 1q0 .6-.4 1t-1.2.6-2 .3q-1 0-1.9-.3-.8-.1-1.2-.6t-.4-1q0-.6.4-1t1.2-.7zm0 .9-1.9.2q-.6.3-.6.8t.6.8l1.9.2q1.1 0 1.8-.2t.6-.8-.6-.8zm13.5-4.4h1.5v1h-1.5v3.5h-1.1V832h1zm.4 7h-7v-3.3h1v2.5h6zm-5.7-9.4q.8 0 1.4.3a2.5 2.5 0 0 1 0 4.5l-1.4.4-1.4-.4q-.6-.3-1-.9-.3-.6-.3-1.3a3 3 0 0 1 1.3-2.3zm0 1q-.5 0-.8.2-.4.1-.6.6-.3.3-.2.8a2 2 0 0 0 .8 1.4l.8.2q.5 0 .9-.2a2 2 0 0 0 .8-1.4q0-.5-.2-.8t-.6-.6-.9-.2m19.4 5.3h-4.2v3.4h-1.1v-3.4h-4.2v-.9h9.5zm-7.2-5.2h5v-1.4h1v4.5h-7.1v-4.5h1zm5 2.3v-1.4h-5v1.4zm12.3 5h-9.5v-1h4.2v-2.3h-3.1v-5h7.3v5h-3.1v2.4h4.2zm-7.3-4.2h5v-3.2h-5zm16.5 1H139v-5.9h1zm-6.9-1.7 4.7-.4.2.9a23 23 0 0 1-5.1.5h-.9v-4.6h1.1zm6.9 6h-6.8v-3.9h6.8zm-5.8-.8h4.7V839h-4.7zm9.8-8.2-.1 2.5-.6 2.2-1 2-.9-.4q.9-1.2 1.2-2.4.4-1.4.5-3h-1.4v-.9zm2.3 0-.1 2.8h1.2v-3.7h1v9.6h-1v-5h-1.3a9 9 0 0 1-1.5 3.7l-.9-.5 1-1.8q.4-1 .5-2l.2-2.2h-1v-.9zm4.1 9.2h-1v-10.4h1zm12.5-9h-3.2q0 .6.5 1 .4.6 1.2.9l1.8.5-.4.9-1.7-.5-1.3-.8q-.6-.4-.8-1-.3.6-.9 1l-1.3.8-1.6.5-.4-1 1.7-.4 1.3-.8q.4-.5.5-1.1h-3.2v-.9h7.8zm-.3 8.8h-7.1v-3h1v2h6.1zm1.1-3.8h-9.4v-.9h4.1v-1.6h1.1v1.6h4.2zm5-4.6H166v2.9l3.3-.3.1.9a16 16 0 0 1-3.8.3h-.7v-4.7h4zm4.5 5h-1v-3.2H171v2.3h-1v-5.7h1v2.5h1.2v-2.7h1zm-3 0q0 .6.5 1.1t1.2 1l1.8.6-.5.8q-1.2-.2-2.1-.8-1-.5-1.4-1.3a4 4 0 0 1-1.5 1.3q-.9.6-2.1.8l-.5-.8q1-.1 1.8-.6t1.3-1 .4-1.2v-.3h1.1zm12.4-4.6h1.5v.9h-1.5v2.2h-1.1v-5.3h1zm-3 2.6H175v-4.2h4.9zm-3.7-1h2.7v-2.4H176zm6.7 4.6H177v1h6v.8h-7v-2.7h5.6v-1H176v-.8h6.7zm7.8-6.3a4 4 0 0 0 .7 2l.8 1q.6-.4.9-1a4 4 0 0 0 .7-2v-1.3h1v1.3a4 4 0 0 0 1 2.4q.5.5 1.1.7l-.6.9q-.8-.3-1.2-1-.6-.5-.8-1.2l-.8 1.4q-.5.6-1.3.9-.7-.3-1.2-1t-.8-1.4l-.8 1.4-1.2.9-.6-.9q.7-.2 1-.8a4 4 0 0 0 1-2.3v-1.3h1.1zm6.3 7h-9.5v-1h9.5zm9.2 1.3h-1v-10.4h1.1zm-3-9.3a8 8 0 0 1-1.2 4.3q-1.2 1.9-3.7 3l-.6-.8a8 8 0 0 0 3-2.4q1.2-1.4 1.3-3.2H198v-.9z"/><path fill="#cfd4da" d="M75.7 852.8q.3 0 .5.2l.9.8h1.3a1 1 0 0 1 1 1v6.4a1 1 0 0 1-.9 1H70a1 1 0 0 1-1-1V855a1 1 0 0 1 1-1h1.4l.8-.9.5-.2zm-1.5 2.4a2.6 2.6 0 1 0 0 5.2 2.6 2.6 0 0 0 0-5.2m0 1a2 2 0 0 1 1.5 1 1.6 1.6 0 1 1-1.5-1"/><path fill="#202428" fill-opacity=".4" d="m86.9 855.6.2 1.5.8 1.3 1 .8-.5.7-1.2-1-.7-1.5q-.3.9-.9 1.6-.5.7-1.2 1l-.5-.6q.7-.3 1-1a4 4 0 0 0 1.1-2.8v-1.4h.9zm3.6 1.2h1.3v.8h-1.3v4.2h-1v-8.3h1zm4.6-1.5q0 .5.3 1t.7.9l1 .5-.4.7q-.7-.2-1.2-.7t-.8-1l-.8 1.1q-.6.5-1.3.8l-.5-.7q.7-.1 1.1-.6l.8-1 .2-1v-.4h-1.8v-.7h4.5v.7h-1.8zm3.8 4.3H98v-6h1zm.3 2h-5.7V859h.9v2h4.8zm9.9-2h-.9v-6h.9zm.2 2h-5.6V859h.9v2h4.7zm-4.7-7.5q.6 0 1.1.3a2 2 0 0 1 1.1 1.7 2 2 0 0 1-1 1.8l-1.2.3q-.6 0-1.1-.3a2 2 0 0 1-1.1-1.8 2 2 0 0 1 1-1.7zm0 .8-.7.1a1 1 0 0 0-.7 1.1l.2.7.5.5.7.1.7-.1.5-.5.1-.7-.1-.6-.5-.5zm13.2 3.2h-7.6v-.7h7.6zm-3.8.7q.9 0 1.6.2.6.1 1 .5.3.3.3.8t-.4.8-1 .5l-1.5.2q-.8 0-1.5-.2-.7-.1-1-.5-.3-.3-.4-.8 0-.5.4-.8.3-.3 1-.5t1.5-.2m0 .7q-.9 0-1.5.2-.5.1-.5.6t.5.6l1.5.2q1 0 1.5-.2.5-.1.5-.6t-.5-.6zm3.1-4.8h-2.5l.4.7 1 .6 1.4.3-.3.7-1.3-.3-1.1-.6-.7-.8q-.2.5-.7.8l-1 .6-1.3.3-.4-.7q.8 0 1.4-.3l1-.6q.4-.3.4-.7H111v-.8h6.2z"/><path fill="#6b747e" fill-opacity=".2" d="M125 853.6h.8v7.9h-.8z"/><g filter="url(#i)"><rect width="11.1" height="11.1" x="132.1" y="852" fill="#fbe904" rx="5.5" shape-rendering="crispEdges"/><rect width="10.9" height="10.9" x="132.2" y="852.1" stroke="#c2ac30" stroke-width=".2" rx="5.4" shape-rendering="crispEdges"/><rect width="9.2" height="9.2" x="133" y="852.9" fill="#fdd540" rx="4.6"/><path fill="#eaa001" d="M139.3 855.9q.5 0 .4.4l-.2 1h.3a.4.4 0 1 1 0 .7h-.5l-.2.8a.5.5 0 0 1-1 0l-.4-1.7-.5 1.7a.5.5 0 0 1-1 0l-.2-.8h-.6a.4.4 0 1 1 0-.8h.4l-.2-.9a.4.4 0 1 1 .7-.1l.4 1.9.5-1.8a.5.5 0 0 1 1 0l.3 1.8.4-2z"/></g><path fill="#202428" fill-opacity=".4" d="M149.2 861.1q-.6 0-1.1-.2l-.8-.7q-.3-.4-.4-1h1l.2.6.5.3.6.2q.4 0 .7-.2l.5-.5.2-.7q0-.4-.2-.7-.2-.4-.5-.5-.3-.3-.8-.2-.8 0-1.1.6h-1l.4-3.8h3.8v.9h-3l-.1 1.9.6-.4h.7q.6 0 1.1.2l.8.8q.3.4.3 1.2 0 .6-.3 1.1t-.9.8q-.4.3-1.2.3m3.5 1.8h-.7l.4-2.5h1zm4-1.8q-.8 0-1.3-.4-.6-.3-.8-1.2t-.3-1.8q0-1.1.3-1.9t.8-1.2q.6-.3 1.3-.4.8 0 1.4.4t.8 1.2.3 1.9-.3 1.8q-.3.9-.8 1.2-.6.4-1.4.4m0-.9q.5 0 .8-.2t.5-1l.2-1.3q0-.9-.2-1.4-.2-.6-.5-.9t-.8-.3-.7.3l-.5.9-.2 1.4q0 .8.2 1.4 0 .6.5.9zm5.7 1q-.8 0-1.3-.5-.6-.3-.8-1.2t-.3-1.8q0-1.1.3-1.9t.8-1.2q.6-.3 1.3-.4.8 0 1.3.4t.9 1.2.3 1.9-.3 1.8q-.3.9-.9 1.2-.5.4-1.3.4m0-1q.5 0 .8-.2t.5-1l.2-1.3q0-.9-.2-1.4-.2-.6-.5-.9t-.8-.3-.8.3l-.5.9-.1 1.4.1 1.4.5.9zm5.7 1q-.8 0-1.3-.5-.6-.3-.9-1.2t-.3-1.8q0-1.1.3-1.9t.9-1.2q.6-.3 1.3-.4.8 0 1.3.4t.9 1.2.3 1.9-.3 1.8q-.3.9-.9 1.2-.5.4-1.3.4m0-1q.5 0 .8-.2t.5-1l.2-1.3-.2-1.4q-.2-.6-.5-.9t-.8-.3-.8.3l-.5.9-.1 1.4.1 1.4.5.9zm10.4-.2h-.9v-.8H176v-.6h1.6v-4.9h1zm.2 1.8h-6v-2.4h1v1.7h5zm-7.1-4.3 5.4-.2v.6l-2.2.2v1.7h-.8V858h-2.3zm2.7-3.4 1 .1.8.5q.3.4.3.8t-.3.8l-.7.5-1 .2-1.2-.2-.7-.5q-.3-.3-.3-.8t.3-.8l.7-.5zm0 .6-.6.1-.5.3-.1.4.1.4.5.3.6.1h.6l.5-.4v-.8l-.5-.3z"/><rect width="48.6" height="25.3" x="258.5" y="825.5" fill="#19c3fc" rx="6.3"/><path fill="#fff" d="M273 840h-1v-6.5h1zm.3 2.2h-6.1v-2.9h1v2.2h5.1zm-5.1-8.1q.6 0 1.2.3a2 2 0 0 1 1.2 1.9 2 2 0 0 1-1.2 2l-1.2.2q-.7 0-1.2-.3a2.2 2.2 0 0 1-.9-3q.3-.6.9-.8.4-.3 1.2-.3m0 .8q-.5 0-.8.2-.3.1-.5.5l-.2.7q0 .4.2.7l.5.5.8.2q.4 0 .7-.2l.5-.5q.3-.3.2-.7a1 1 0 0 0-.7-1.2zm14.3 3.6h-8.2v-.8h8.2zm-4.1.6 1.7.2 1 .6q.4.4.4.9t-.4.9l-1 .5q-.7.3-1.7.2t-1.7-.2l-1-.5q-.4-.4-.4-1t.4-.8l1-.6zm0 .8q-1 0-1.6.2t-.6.7.6.6 1.6.3 1.6-.3q.6-.1.5-.6t-.5-.7zm3.4-5.2H279q0 .4.5.8l1 .6 1.6.4-.4.7q-.8 0-1.4-.3l-1.2-.6-.7-.9-.7.9-1.2.6-1.4.3-.4-.7 1.5-.4 1.1-.6.5-.8H275v-.8h6.7zm8.2 2.4h1.5v.8H290v4.5h-1v-9h1zm-1.7-1.5H283v-.7h2.2v-1.3h1v1.3h2zm-2.6.7q.6 0 1.1.3a2 2 0 0 1 1.1 1.8q0 .6-.3 1l-.8.8q-.5.3-1.1.3t-1.2-.3a2 2 0 0 1-1-1.8q0-.6.2-1 .3-.6.8-.8t1.2-.3m0 .8-.7.1-.5.5-.2.7.2.7.5.4.7.2.6-.2q.3 0 .5-.4l.2-.7q0-.4-.2-.7l-.5-.5zm13.5 5.3h-1v-9h1zm-2.7-8a7 7 0 0 1-1 3.7q-1 1.7-3.2 2.7l-.5-.8a7 7 0 0 0 2.7-2q1-1.2 1-2.8h-3.2v-.8z"/><path fill="#202428" fill-opacity=".4" d="M75.8 890.3h-7.6v-.7h3.4v-1h-2.4v-2.8h5.7v.7H70v1.4h5v.8h-2.6v.9h3.4zm-1 3.5H74v-2h-5v-.8h6zm4.4-6.2a4 4 0 0 0 1 2.7q.5.6 1.2.9l-.6.7q-.7-.4-1.2-1l-.8-1.6-.8 1.7-1.2 1-.6-.7q.6-.3 1.1-.9a4 4 0 0 0 1-2.8v-1.4h1zm4 6.2h-1v-4.9h-1.8v-.7h1.9v-2.7h.9z"/><path fill="#353a40" d="M77.7 908.4h-4.1v1q1.5 0 2.2.6.8.4.8 1.3 0 .6-.4 1l-1.3.6-1.9.2-2-.2-1.2-.6q-.4-.4-.4-1 0-.9.8-1.3a5 5 0 0 1 2.3-.6v-1h-4.2v-.9h9.4zm-4.7 1.9q-1.2 0-1.8.2t-.7.8.7.7 1.8.2h1.3l.9-.4q.3-.2.3-.5 0-.5-.7-.8zm4-6.3h-3.1q0 .4.5 1l1.3.7q.7.3 1.7.3l-.4 1-1.7-.5q-.8-.3-1.3-.7t-.9-1l-.8 1-1.4.7-1.6.4-.4-.9q1 0 1.7-.3.8-.3 1.2-.8l.6-.9h-3.1v-.9H77zm11 4.4h-9.5v-.9h9.4zm-1.2-1.8h-7.1V903h7v1h-6v1.7h6.1zm-3.6 2.6q1.1 0 1.9.3.8.1 1.2.6.5.4.5 1t-.5 1l-1.2.7-2 .2q-1 0-1.8-.2t-1.3-.7-.4-1q0-.6.4-1t1.3-.7zm0 .9-1.8.3q-.7.2-.7.7t.7.8 1.8.2l1.8-.2q.7-.3.7-.8t-.7-.7zm16.5-1.8h-3.2v2.5h4.3v1h-9.5v-1h4.2v-2.5h-3v-4.9h7v1h-6v3h6.2zm5.4-3a5 5 0 0 0 1.3 3.4q.6.8 1.3 1l-.6 1q-.9-.4-1.6-1.3l-1-2q-.3 1.2-1 2.1T102 911l-.7-1 1.4-1a6 6 0 0 0 1.3-3.6v-1.8h1zm4.9 7.7h-1v-6h-2.4v-.9h2.3v-3.4h1zm7.7-1h-1.3v-7l-2 1.2V905l2-1.3h1.3zm10.3-1.5h-1.1v-1.4h-2.2v-.9h2.2v-5.5h1zm.2 2.3h-7.4v-3.2h1v2.3h6.4zm-9-6.1 4.6-.1.2-2.5h-4v-.9h4.9v.4l-.2 2.9 1-.1.2.7-2.9.4v2.3h-1v-2.3h-2.8zm16.3 5.4q-.9 0-1.6-.2t-1-.9-.5-1.2h1.3q0 .4.3.7t.6.4l.8.1 1-.1.6-.5.2-.7-.2-.8-.7-.5-1-.1h-.7v-1h.7l.8-.2.6-.5.2-.7q0-.4-.2-.7 0-.3-.5-.4l-.7-.2-.8.2q-.5 0-.6.4l-.3.6h-1.2q0-.6.4-1.2l1-.8a3 3 0 0 1 2.9 0l1 .9.2 1.1q.1.8-.4 1.2l-1 .7q.8.1 1.3.7t.5 1.3-.4 1.3-1.1.8q-.7.3-1.6.3m7.1 0q-1 0-1.6-.5t-1-1.4q-.5-1-.5-2.4t.4-2.3 1-1.5 1.7-.5 1.7.5q.7.6 1 1.5t.4 2.3-.4 2.4q-.3 1-1 1.4-.7.5-1.7.5m0-1q.6 0 1-.4t.6-1.1.2-1.8-.2-1.7-.6-1.1-1-.4-1 .4l-.6 1-.2 1.8q0 1 .2 1.8.3.7.7 1t1 .4m4.3-5.4h1.2v1l.4-.4.6-.5.9-.1a2.4 2.4 0 0 1 2.3 1.5q.3.7.3 1.7t-.3 1.7-1 1.2-1.3.4q-.7 0-1.2-.4-.4-.2-.6-.8v3.4h-1.3zm1.2 3.2.2 1.2.5.7q.4.3 1 .3t.8-.3.6-.8l.2-1.1-.2-1.1q-.2-.5-.6-.8t-.9-.3q-.8 0-1.2.6t-.4 1.6m16.5-.8h-1v-5.4h1zm-3.8 3h-2.4v1l3-.3.2.8-1.6.2h-2.7v-2.5h2.4v-1h-2.4v-.8h3.5zm3.8 1.8h-1v-3.5h-2.3v-.9h3.3zM159 903q.8 0 1.4.3l1 .8.3 1.2q0 .7-.4 1.3-.3.5-1 .8-.5.3-1.3.3t-1.4-.3-1-.8-.3-1.3.3-1.2 1-.8 1.4-.3m0 1h-.9l-.6.6-.2.7.2.8.6.5.9.2q.5 0 .8-.2t.6-.5.2-.8-.2-.7-.6-.5zm15.7 9h-1v-10.4h1zm-3-9.3a8 8 0 0 1-1.2 4.2q-1.2 2-3.7 3.1l-.6-.9a8 8 0 0 0 3.1-2.3q1-1.4 1.2-3.3h-3.8v-.8z"/><g clip-path="url(#j)"><path fill="#cfd4da" d="M77.6 932.8q1-.1 1-1v-2L77 928a1 1 0 0 0-1.5 0l-4.7 4.8z"/><path stroke="#cfd4da" stroke-linecap="round" stroke-linejoin="round" stroke-width="1.1" d="M78.7 929.9 77 928a1 1 0 0 0-1.5 0l-4.7 4.8m7.9-3v-5.4q-.1-1-1.1-1h-7.4a1 1 0 0 0-1 1v7.3q.1 1 1 1h.6m7.9-2.8v1.8q-.1 1-1.1 1h-6.8"/><path fill="#cfd4da" stroke="#cfd4da" stroke-linecap="round" stroke-linejoin="round" stroke-width="1.1" d="M73.4 926.5a1 1 0 1 1-2.1 0 1 1 0 0 1 2 0"/></g><path fill="#202428" fill-opacity=".4" d="M91 928.7h-.8v-1.8h-1v1.7h-.7v-4h.8v1.5h1v-1.7h.8zm0 2.4h-4.6v.7h5v.7h-5.9v-2.1h4.7v-.7h-4.7v-.7h5.6zm-5-6.3 1 .2q.5.1.6.6.3.4.3 1l-.3 1-.6.6-1 .2-1-.2a2 2 0 0 1-1-1.6q0-.6.3-1t.7-.6zm0 .6-.6.2-.4.4-.1.6.1.6.4.4.6.1.5-.1.4-.4.2-.6-.2-.6-.4-.4zm7.3.7h2v-1.3h1v1.6H98v-2h.8v4.8H98v-2h-1.8v1.5h-3.9v-3.9h1zm2 2v-1.3h-2v1.2zm3.6 4.4h-5.4v-3h5.4zm-4.6-.7h3.8v-1.5h-3.8zm14.8-1.4h-.9v-6h.9zm.2 2h-5.6v-2.6h.9v2h4.7zm-4.7-7.5q.6 0 1.1.3a2 2 0 0 1 1.1 1.8 2 2 0 0 1-1 1.8q-.6.3-1.2.2t-1.1-.2a2 2 0 0 1-1.1-1.8 2 2 0 0 1 1-1.8zm0 .8q-.4 0-.7.2a1 1 0 0 0-.7 1l.2.8.5.4.7.2q.4 0 .7-.2.3 0 .5-.4l.1-.7-.1-.7-.5-.4zm13.2 3.3h-7.6v-.7h7.6zm-3.8.6q.9 0 1.6.2l1 .5q.3.3.3.8t-.4.8q-.3.4-1 .6l-1.5.1-1.5-.1q-.7-.2-1-.6-.3-.2-.4-.8 0-.5.4-.8.3-.3 1-.5zm0 .7q-.9 0-1.5.2t-.5.6.5.6q.6.3 1.5.2t1.5-.2.5-.6q0-.3-.5-.6zm3.1-4.8h-2.5q0 .4.4.7.4.4 1 .6l1.4.3-.3.7-1.3-.3-1.1-.5-.7-.8q-.2.4-.7.8l-1 .5-1.3.3-.4-.7q.8 0 1.4-.3l1-.6q.4-.3.4-.7H111v-.7h6.2z"/><path fill="#6b747e" fill-opacity=".2" d="M125 924.4h.8v7.9h-.8z"/><g filter="url(#k)"><rect width="11.1" height="11.1" x="132.1" y="922.8" fill="#fbe904" rx="5.5" shape-rendering="crispEdges"/><rect width="10.9" height="10.9" x="132.2" y="922.9" stroke="#c2ac30" stroke-width=".2" rx="5.4" shape-rendering="crispEdges"/><rect width="9.2" height="9.2" x="133" y="923.8" fill="#fdd540" rx="4.6"/><path fill="#eaa001" d="M139.3 926.7q.5 0 .4.5l-.2.9h.3a.4.4 0 1 1 0 .8h-.5l-.2.7a.5.5 0 0 1-1 0l-.4-1.7-.5 1.7a.5.5 0 0 1-1 0l-.2-.8h-.6a.4.4 0 0 1 0-.7h.4l-.2-1a.4.4 0 1 1 .7 0l.4 1.8.5-1.8a.5.5 0 0 1 1 0l.3 1.8.4-1.9q0-.3.4-.3"/></g><path fill="#202428" fill-opacity=".4" d="M149.2 932q-.6 0-1.1-.3l-.8-.6q-.3-.4-.4-1h1l.2.5.5.4.6.1q.4 0 .7-.2.3-.1.5-.5l.2-.7q0-.4-.2-.7l-.5-.5-.8-.2q-.8 0-1.1.6h-1l.4-3.7h3.8v.8h-3l-.1 2 .6-.4.7-.1q.6 0 1.1.2l.8.8.3 1.2-.3 1.2q-.3.5-.9.8-.4.3-1.2.3m3.5 1.8h-.7l.4-2.6h1zm4-1.8q-.8 0-1.3-.4t-.8-1.2-.3-1.9.3-1.8q.3-.9.8-1.2.6-.4 1.3-.4t1.4.4.8 1.2.3 1.8-.3 1.9-.8 1.2-1.4.4m0-1q.5 0 .8-.2t.5-.9l.2-1.4q0-.8-.2-1.4t-.5-.9-.8-.3-.7.3-.5 1l-.2 1.3q0 .9.2 1.4 0 .6.5.9.3.3.7.3m5.7 1q-.8 0-1.3-.4t-.8-1.2-.3-1.9.3-1.8q.2-.9.8-1.2.6-.4 1.3-.4t1.3.4.9 1.2.3 1.8-.3 1.9-.9 1.2-1.3.4m0-1q.5 0 .8-.2t.5-.9l.2-1.4q0-.8-.2-1.4t-.5-.9-.8-.3-.8.3l-.5 1-.1 1.3.1 1.4.5.9q.4.3.8.3m5.7 1q-.8 0-1.3-.4t-.9-1.2-.3-1.9.3-1.8q.3-.9.9-1.2.6-.4 1.3-.4t1.3.4.9 1.2.3 1.8-.3 1.9-.9 1.2-1.3.4m0-1q.5 0 .8-.2t.5-.9l.2-1.4-.2-1.4q-.2-.6-.5-.9t-.8-.3-.8.3l-.5 1-.1 1.3.1 1.4.5.9q.3.3.8.3m10.4-.6h-.9v-.8H176v-.7h1.6v-4.8h1zm.2 1.8h-6V930h1v1.8h5zm-7.1-4.3 5.4-.3v.6l-2.2.3v1.6h-.8v-1.6h-2.3zm2.7-3.5q.7 0 1 .2.6.1.8.5.3.3.3.7 0 .5-.3.8l-.7.5-1 .2-1.2-.2-.7-.5q-.3-.3-.3-.8t.3-.7l.7-.5q.5-.3 1.1-.2m0 .6-.6.1-.5.3-.1.4.1.5.5.2.6.1h.6l.5-.3a1 1 0 0 0 0-.9l-.5-.3z"/><rect width="48.6" height="25.3" x="258.5" y="895.6" fill="#19c3fc" rx="6.3"/><path fill="#fff" d="M273 910.1h-1v-6.5h1zm.3 2.3h-6.1v-3h1v2.2h5.1zm-5.1-8.2 1.2.3a2 2 0 0 1 1.2 2 2 2 0 0 1-1.2 1.9l-1.2.3q-.7 0-1.2-.3a2.2 2.2 0 0 1-.9-3.1q.3-.5.9-.8.4-.3 1.2-.3m0 .8-.8.2a1 1 0 0 0-.7 1.2q0 .5.2.8l.5.5.8.1.7-.1.5-.5q.3-.3.2-.8t-.2-.7-.5-.5zm14.3 3.6h-8.2v-.8h8.2zm-4.1.7q1 0 1.7.2.6.1 1 .6.4.3.4.8t-.4 1l-1 .5-1.7.2-1.7-.2q-.6-.2-1-.6t-.4-.9.4-.8 1-.6zm0 .7q-1 0-1.6.3t-.6.6.6.7l1.6.2q1 0 1.6-.2t.5-.7-.5-.6-1.6-.3m3.4-5.2H279q0 .5.5.8l1 .7 1.6.3-.4.8-1.4-.4q-.7-.1-1.2-.6l-.7-.8-.7.8q-.5.5-1.2.6l-1.4.4-.4-.8q.8 0 1.5-.3l1.1-.7q.4-.3.5-.8H275v-.8h6.7zm8.2 2.4h1.5v.8H290v4.6h-1v-9h1zm-1.7-1.4H283v-.8h2.2v-1.3h1v1.3h2zm-2.6.6q.6 0 1.1.3a2 2 0 0 1 1.1 1.8q0 .6-.3 1.1l-.8.8-1.1.2q-.7 0-1.2-.2a2 2 0 0 1-1-1.9q0-.6.2-1t.8-.8 1.2-.3m0 .8q-.4 0-.7.2l-.5.5-.2.6.2.7.5.5.7.1.6-.1.5-.5.2-.7-.2-.6q-.1-.3-.5-.5zm13.5 5.4h-1v-9h1zm-2.7-8a7 7 0 0 1-1 3.7q-1 1.6-3.2 2.6l-.5-.7a7 7 0 0 0 2.7-2q1-1.3 1-2.9h-3.2v-.7z"/><g filter="url(#l)"><path fill="#fff" d="M39.9 881.8h296v75h-296z"/><path fill="#353a40" d="M80.1 889.8a2 2 0 0 0-2 0l-6.6 5.1a.8.8 0 0 0 .5 1.4h.8v6.3a1.6 1.6 0 0 0 1.6 1.6h3.1v-4.7a1.6 1.6 0 1 1 3.2 0v4.7h3.2a1.6 1.6 0 0 0 1.5-1.6v-6.3h.8c.8 0 1.1-1 .5-1.4zm2.1 31.6H77v-2.2h5.2zm-4.4-.6h3.6v-1h-3.6zm4.9-5.7h-6.2v-.6h2.7v-.7h.8v.7h2.7zm-3.1.3q1.2 0 1.8.3t.7.8-.6.7l-1.5.3v.6h3v.6h-6.9v-.6h3v-.6l-1.5-.3q-.5-.2-.5-.7t.6-.8 1.9-.3m0 .6q-1.7 0-1.7.5 0 .2.5.4l1.2.1 1.2-.1q.4-.2.4-.4 0-.5-1.6-.5"/><path fill="#202428" fill-opacity=".2" d="M130.9 889.7a4 4 0 0 1 2.8 1.4 4 4 0 0 1 3-1.4h3.5a1.4 1.4 0 0 1 1.4 1.4v9.4a1.4 1.4 0 0 1-1.4 1.4h-4.3a1.4 1.4 0 0 0-1.4 1.4.7.7 0 0 1-1.5 0 1.4 1.4 0 0 0-1.3-1.4h-4.4a1.4 1.4 0 0 1-1.4-1.4V891a1.4 1.4 0 0 1 1.4-1.4zm-1.5 6.4a.7.7 0 1 0 0 1.5h1.5a.7.7 0 0 0 0-1.5zm7.2 0a.7.7 0 0 0 0 1.5h1.5a.7.7 0 0 0 0-1.5zm-7.2-2.8a.7.7 0 0 0 0 1.4h1.5a.7.7 0 0 0 0-1.4zm7.2 0a.7.7 0 0 0 0 1.4h1.5a.7.7 0 0 0 0-1.4zm-12.8 22h-4.5v-.5h2v-.9h.6v.9h1.9zm-2.3.4q.6 0 1 .2.4 0 .6.4.3.4.3.7 0 .5-.3.8-.1.3-.6.4l-1 .2-1-.2q-.3 0-.5-.4-.3-.3-.3-.8 0-.3.3-.7.1-.3.6-.4t1-.2m0 .5-.6.1-.4.3-.1.4.1.5.4.3h1.3l.4-.3a1 1 0 0 0 0-.9l-.4-.3zm3.7-.2h1.1v.6h-1.1v2h-.7V914h.7zm0 5.5h-.7v-1.9h-4.3v-.5h5zm3-2.2h3.7v-.8h.7v2.9h-5.1v-3h.7zm3.7 1.5v-1h-3.7v1zm1.6-2.9h-6.9v-.5h6.9zm-3-3.5q0 .5.3.8l1 .7q.7.4 1.3.4l-.2.5-1.2-.3-1-.5q-.5-.3-.6-.8l-.7.8-1 .5q-.6.3-1.1.3l-.3-.5q.7 0 1.3-.4.7-.2 1-.6t.4-1v-.3h.7zm7.7.5-.2 2.1h-.7l.2-2h-3.1v-.6h3.8zm-2 3 2.5-.3v.5l-2.2.2-2.5.1v-.5h1.6v-1.7h.6zm3.7-1.5h1v.6h-1v2.6h-.7V914h.7zm.2 5h-5V919h.7v1.7h4.3zm7.4 0h-.6V914h.6zm-2.2-4h-2.9v1.7l3.8-.3v.6l-3.8.3h-.6v-3h2.8v-1.5h-2.9v-.6h3.6z"/><path fill="#202428" fill-opacity=".2" fill-rule="evenodd" d="M193 890a2.4 2.4 0 0 1 2.3 2.4v7.9a2.4 2.4 0 0 1-2.4 2.3h-9.2l-2.6 2a1 1 0 0 1-1.6-.8v-11.4a2.4 2.4 0 0 1 2.4-2.4zm-6.4 7.1h-2.3a.8.8 0 0 0 0 1.6h2.3a.8.8 0 0 0 0-1.6m4-3.1h-6.3a.8.8 0 0 0-.1 1.5h6.4a.8.8 0 0 0 0-1.5" clip-rule="evenodd"/><path fill="#202428" fill-opacity=".2" d="M183 916.3a4 4 0 0 0 .8 2.2q.3.5.8.7l-.4.5-1-.8-.5-1.2-.6 1.3-1 .9-.4-.5.9-.8a4 4 0 0 0 .8-2.3v-.4h-1.5v-.5h1.5v-1.2h.6v1.2h1.4v.5H183zm4.3 5.2h-.7v-4h-1v3.6h-.7v-7h.7v2.9h1v-3h.7zm4.9-6.5h-3v1h2.8v.5h-2.8v1l3.6-.2v.6l-1.5.1h-2.7v-3.5h3.6zm2.1 3.6h-.6V914h.6zm-2.5.1q.8 0 1.4.2.6 0 .9.5.3.3.3.7t-.3.7l-.9.5-1.4.2-1.3-.2-1-.5-.2-.7q0-.4.3-.7.3-.4.9-.5zm0 .6h-1l-.6.3a.6.6 0 0 0 0 1l.6.2 1 .1h1l.7-.4.2-.4-.2-.5-.7-.2z"/><g clip-path="url(#m)"><path fill="#202428" fill-opacity=".2" d="M240.5 904.7h7a1.6 1.6 0 0 0 1.6-1.6v-1.6h-8.6zm0-4.8h8.6V896h-8.6zm-1.6-3.9v4h-4v-4zm1.6-1.6h8.6v-1.6a2 2 0 0 0-1.5-1.5h-7.1zm-1.6-3.1v3.1h-4v-1.6a1.6 1.6 0 0 1 1.6-1.5zm0 10.2v3.2h-2.4a1.6 1.6 0 0 1-1.6-1.6v-1.6z"/></g><path fill="#202428" fill-opacity=".2" d="M237.5 921.5h-.7v-7.6h.7zm-2.3-4.2h-2.8v1.8l3.7-.3v.6l-3.8.3h-.6v-3h2.8v-1.5h-2.8v-.6h3.5zm10.3 3.2h-6.9v-.5h3v-1.8h-2.4v-.5h1.2v-2.5h-1.2v-.5h5.6v.5h-1.2v2.5h1.2v.5h-2.5v1.8h3.2zm-2.5-2.8v-2.5h-2v2.5zm9 .9h-5.2v-4h5.2v.5h-4.5v1.2h4.3v.5h-4.3v1.2h4.5zm.8 1.9H246v-.6h7zm42.9-22.6q3 0 4.9 1.3l1.6 1.3q.5.8.6 1.7a2 2 0 0 1-.8 1.6q-.6.6-1.6.8-2 .4-4.7.4t-4.6-.4q-1-.2-1.7-.8a2 2 0 0 1-.8-1.6q0-1 .7-1.7l1.5-1.3q2-1.2 5-1.3m0-8.7a4 4 0 1 1 0 8 4 4 0 0 1 0-8m-2.9 30.4h-3.5v-4.9h3.5zm-2.9-.6h2.2v-3.8H290zm4.9-2h1.3v.5h-1.3v4h-.7v-7.6h.7zm7.7 4.5h-.6v-7.6h.6zm-4-7q.6 0 1 .4.4.3.7.9.3.5.2 1.4t-.2 1.3l-.7 1q-.4.3-1 .3t-1-.4-.7-.9l-.2-1.4q0-.8.2-1.3l.7-1q.4-.3 1-.3m0 .6-.6.3q-.3.2-.5.7l-.2 1 .2 1.1q.2.5.5.7l.6.3q.4 0 .7-.3t.4-.7l.2-1q0-.7-.2-1.1 0-.5-.4-.7z"/><rect width="105.8" height="3.9" x="135" y="946.8" fill="#000" rx="2"/></g><rect width="24" height="24" x="281" y="347.5" fill="#1983fc" rx="12"/><path fill="#fff" d="M294.5 355v8.5h-1.8v-6.8l-2 1.2v-1.6l2.1-1.3z"/><rect width="267" height="220" x="54" y="406.5" stroke="#1983fc" stroke-width="2" rx="15"/><rect width="24" height="24" x="213" y="395.5" fill="#1983fc" rx="12"/><path fill="#fff" d="m222 410.2 3-2.8.7-.7.4-.6.2-.6-.2-.7-.5-.4-.7-.1q-.6 0-1 .3-.3.4-.3 1h-1.7q0-.9.4-1.4.3-.7 1-1t1.6-.3 1.6.3 1 .9.5 1.3l-.2 1-.7 1-1.4 1.3-1.2 1.3h3.6v1.5h-6z"/><rect width="267" height="199" x="54" y="681.5" stroke="#1983fc" stroke-width="2" rx="15"/><rect width="24" height="24" x="43" y="670.5" fill="#1983fc" rx="12"/><path fill="#fff" d="M55 686.6q-1 0-1.7-.3t-1.1-1q-.4-.4-.5-1.2h1.8l.2.5.6.4.7.1.7-.1.5-.4q.3-.3.2-.6 0-.4-.2-.6-.1-.3-.5-.5l-.9-.1H54v-1.3h.8l.8-.2q.3 0 .5-.3l.1-.6a1 1 0 0 0-.5-1l-.7-.1-.7.1-.5.4-.2.5H52q0-.7.4-1.2l1.1-1 1.6-.2q.8 0 1.5.3t1 .8a2 2 0 0 1 .2 2.1q-.1.4-.5.6l-.9.4q.6 0 1 .4.6.2.7.6.3.4.3 1t-.5 1.3q-.3.6-1.1.9-.7.3-1.7.3"/></g><rect width="298" height="643" x="38.5" y="315" stroke="#6b747e" stroke-opacity=".1" stroke-width="2" rx="17"/></g><path fill="#353a40" d="M28 1005.8h-2.7q0 .8.4 1.4.3.6 1 1 .7.6 1.7.9l-.8 1.4q-1.2-.3-2-.9-.7-.6-1.2-1.4-.4.9-1.3 1.6-.8.6-2 1l-.8-1.5q1-.2 1.7-.8t1-1.2.4-1.5h-2.6v-1.4h2.6v-1.4h2v1.4H28zm3 .4h1.8v1.5H31v3.1h-2v-7.8h2zm0 10h-8.7v-4.8H31zm-6.9-1.5h5v-1.8h-5zm20-9.3-.5 6.4-1.9-.2a24 24 0 0 0 .6-6h-7.9v-1.4h9.7zm1.2 9.3H33.2v-1.5h4.3v-4.6h1.9v4.6h6zm5.5-8.7q0 1.3.4 2.4.4 1.2 1 2 .7 1 1.8 1.5l-1.1 1.5q-1-.6-1.8-1.5-.7-.9-1.2-2.2-.5 1.4-1.2 2.4-.9.9-2 1.5l-1-1.5q1-.5 1.8-1.4.7-1 1-2.2.5-1.2.5-2.5v-2h1.8zm5.6 2.2h2v1.5h-2v6.6h-1.8V1003h1.8zm12.9-1.8H71v1.6h-1.8v3.5h-2v-8.5h2zm-4.4 5.2q1.4 0 2.4.3t1.6.8.5 1.3-.5 1.2q-.7.6-1.6.9l-2.4.3-2.4-.3q-1-.3-1.6-.9-.5-.5-.5-1.2 0-.8.5-1.3t1.6-.8zm0 1.4q-2.7 0-2.7 1 0 .4.7.7t2 .3l2-.3q.6-.3.6-.7 0-1-2.6-1m1.7-7.3h-8v-1.4h3.1v-1.4h1.9v1.4h3zm-4 .5q1 0 1.7.3.8.3 1.2.9.4.4.4 1.2t-.4 1.3-1.2.8q-.6.3-1.7.3-1 0-1.7-.3t-1.2-.9a2 2 0 0 1-.4-1.2q0-.7.4-1.2t1.2-.9 1.7-.3m0 1.4-1 .2q-.4.3-.4.8-.1.5.4.8l1 .2q.8 0 1.1-.2.5-.3.5-.8t-.5-.8z"/><rect width="335" height="240" x="20" y="1029" fill="#f8f9fb" rx="8"/><path fill="#353a40" d="M46.4 1061h-2.2v-8.5H44l-2.4 1.5v-2l2.6-1.6h2zm5 .1-.6-.1-.5-.5-.1-.6a1 1 0 0 1 .6-1 1 1 0 0 1 1.2 0q.3 0 .4.4.3.3.2.6a1 1 0 0 1-.6 1zm18-9.5h1.9v1.5h-1.8v2.6h-1.9v-6.7h1.9zm0 8.2h-7v1H70v1.4h-9.2v-3.7h7v-.8h-7v-1.5h8.8zm-6.8-10.4q1 0 1.8.4t1.3 1 .4 1.6-.4 1.6-1.3 1-1.8.5-1.9-.4q-.8-.5-1.2-1.1-.5-.7-.5-1.6 0-.8.5-1.5a3 3 0 0 1 1.2-1q.9-.6 1.9-.5m0 1.5-1 .2-.6.5-.2.8q0 .5.2.8t.7.6l.9.2q.5 0 .9-.2l.6-.5q.3-.4.2-.9t-.2-.8l-.6-.5zm20.2 6H81v-7.9h2zm-4.3-3.1h-4.3v1.2l5.6-.4.2 1.5a29 29 0 0 1-6.5.4h-1.1v-4.1h4.3v-1.1h-4.4v-1.5h6.2zm4.3 8.4h-9v-4.7h9zm-7-1.5H81v-1.7h-5.3zm10.1-1.1-.4-.1-.4-.4-.1-.5.1-.4.4-.4.4-.1.5.1q.2.1.3.4l.2.4q0 .3-.2.5 0 .3-.3.4zm0-5.9-.4-.1-.4-.4-.1-.5.1-.4q.1-.2.4-.3l.4-.2q.3 0 .5.2l.3.3.2.5-.2.4a1 1 0 0 1-.8.5m17 8.5h-1.1v-7H100v6.3h-1.1v-12h1v4.8h1.9v-5.1h1zm-5.7-3.5h-5v-8h5zm-3.9-1h2.8v-6h-2.8zm22 4.5H114v-13h1.1zm-8.8-4.4q3.3 0 6.2-.6l.2 1a33 33 0 0 1-6.5.6h-1v-8.3h1zm21.6 4.4h-1.2v-7.3H124v-1h2.9v-4.7h1.2zm-6.3-9.2q0 1.1.4 2.2.5 1 1.3 2 .7.8 1.7 1.2l-.7 1q-1-.6-2-1.7t-1.3-2.5q-.4 1.5-1.3 2.6t-2 1.8l-.8-.9q1-.4 1.8-1.4.8-.8 1.2-2a6 6 0 0 0 .5-2.3v-1.5h-3v-1h7.2v1h-3zm18.3 1.5h2.1v1h-2.1v6.7H139v-13h1.1zm-3.4-4q0 3-1.4 5.3-1.5 2.4-4.5 4l-.7-1q2.6-1.3 3.9-3a8 8 0 0 0 1.6-4.3h-4.9v-1zm16.4-.5q0 1.5-.8 3-.8 1.3-2 2.2-1.4.9-3.3 1.5l-.5-1q1.6-.3 2.7-1t1.8-1.7.8-2h-4.6v-1zm4 6.6H156v-3.1h-3v-1h2.9v-3.3h1.1zm0 5.4h-8.4v-4.8h8.4zm-7.3-1h6.2v-3h-6.2zm19.9-4.1h-4v2.7h5.3v1h-11.9v-1h5.4v-2.7h-3.8v-6.7h8.8v1h-7.7v1.8h7.4v1h-7.4v2h7.9zm12.4-3.4h2v1h-2v4.4h-1.2v-9.7h1.2zm-2.4-1.8h-7.8v-1h3.3v-1.5h1.2v1.6h3.3zm-4 .7q1 0 1.7.3.8.3 1.1.9t.4 1.3-.4 1.2q-.3.6-1 .9-.8.3-1.7.3-1 0-1.7-.3t-1-.9a2 2 0 0 1-.4-1.2q0-.8.3-1.3.5-.6 1.1-.9t1.7-.3m0 1-1 .1-.7.6q-.3.3-.2.8t.2.8l.7.5 1 .2 1.1-.2q.6-.2.8-.5a1.3 1.3 0 0 0 0-1.6q-.2-.4-.8-.6zm7 8.5H174v-3.7h1.1v2.7h7.7zm9.3-8.7a6 6 0 0 0 1.3 3.9q.7.8 1.6 1.3l-.7.8a5 5 0 0 1-1.7-1.4 7 7 0 0 1-1-2.2l-1 2.3q-.7 1-1.7 1.6l-.7-.9q.8-.4 1.5-1.3t1-2l.3-2.1v-.7h-2.4v-1h2.4v-1.8h1.1v1.9h2.5v1H192zm7.3 9h-1v-13h1zm-2.6-.7h-1v-6.2h-2.1v-1h2v-4.8h1.1zm14.7-9.4-.6 6.3h-1.1l.5-3.4-8 .4-.1-1 8.1-.3v-2.6h-7.8v-1h9zm1.4 8.3H201v-1h11.8zm11.7 1.8h-1.2v-13h1.2zm-4-7.2h-4.8v3a47 47 0 0 0 6.4-.4l.1 1a36 36 0 0 1-6.6.5h-1.1v-5h4.9v-2.8h-5v-1h6.1zm12.5-4q0 1.2.7 2.1t1.8 1.7a7 7 0 0 0 2.3 1l-.5.9a8 8 0 0 1-3.7-2q-.8-.9-1.2-1.8-.5 1-1.2 1.7a7 7 0 0 1-3.7 2l-.5-.9a7 7 0 0 0 4-2.6q.8-1 .8-2v-1h1.2zm5.4 9.4h-11.9v-1h12zm11.4-3.2h-9v-7h8.9v1H242v2h7.4v1H242v2h7.8zm1.4 3.3h-12v-1h12zm13-5.2h-2.1v6.9H261v-13h1.1v5.2h2.1zm-10.5 2.6a33 33 0 0 0 6-.6l.1 1a27 27 0 0 1-6.2.6h-1v-8.5h1.1zm25.4-7.4h-2v2.5h2v.9h-9.6v-.9h2v-2.5h-2v-1h9.6zm1.1 5.4h-11.8v-1h11.8zm-1.5 4H271v1.3h8v.8h-9.2v-3h7.8v-1h-7.8v-1h8.9zm-2.8-6.9v-2.5h-3.3v2.5zm10.5 2.1h-3.7v3l4.6-.3v.9a23 23 0 0 1-4.9.4h-.8v-5h3.7v-2.5h-3.8v-1h5zm5.8 7h-1v-6.8h-2v6.2h-1v-12h1v4.8h2v-5.1h1zm12.5.1h-1.2v-7.8h-4v-1h4v-4.2h1.2zm-9-4.1a38 38 0 0 0 5.8-.5l.1 1a26 26 0 0 1-6 .5h-1v-8.5h1.2zm19-6.5q0 .9.3 1.6l1.1 1.4 1.7 1-.6.9q-1-.5-1.9-1.2a5 5 0 0 1-1.2-1.8 5 5 0 0 1-3.3 3.2l-.6-.9q1-.3 1.7-1 .8-.6 1.2-1.5l.4-1.7v-.6h-3v-1h7v1h-2.9zm5.7 1h2v1h-2v3.4h-1.2v-7.8h1.2zm0 9.6h-1.2v-3.6H312v-.9h8.5zm7-11q0 .9.5 1.8t1 1.4q.8.7 1.8 1l-.7.8a6 6 0 0 1-3-3 6 6 0 0 1-3.4 3.5l-.6-1q1-.3 1.7-1a5 5 0 0 0 1.6-3.4v-1.4h1.2zm6.4 5.7h-1.2v-4h-2.9v-1h3v-2.7h1zm-4.4.4 2.4.3q.9.3 1.5.8t.5 1.3-.5 1.3q-.6.6-1.5.9t-2.4.3q-1.3 0-2.3-.3t-1.5-.9-.5-1.3.5-1.3 1.5-.8zm0 .9q-1 0-1.7.2-.7.1-1 .5a1 1 0 0 0-.5.8q0 .5.4.8t1.1.5 1.7.2 1.8-.2q.6 0 1-.5a1 1 0 0 0 0-1.6l-1-.5q-.7-.2-1.8-.2M71 1078.3H59v-1h12zm-1.4-2.2h-9v-4.4h9v1h-7.8v2.5h7.8zm-4.5 3.4q1.4 0 2.4.3t1.5.8.5 1.2-.5 1.3-1.5.8-2.4.3-2.5-.3-1.5-.8-.5-1.3.5-1.2q.6-.6 1.5-.8zm0 .9-1.8.1-1.2.5a1 1 0 0 0-.4.8q0 .7.9 1 .9.5 2.5.5 1.5 0 2.4-.4t.9-1a1 1 0 0 0-.4-.9l-1.2-.5zm11-8.3q1 0 1.9.4t1.2 1 .5 1.7a3 3 0 0 1-1.7 2.6 4 4 0 0 1-1.8.4q-1 .1-1.9-.4a3 3 0 0 1-1.7-2.7q0-.8.5-1.5a3 3 0 0 1 1.2-1.1q.9-.4 1.9-.4m0 1-1.2.3-.8.7q-.3.5-.3 1a2 2 0 0 0 1.1 1.9l1.3.2 1.2-.2.8-.7q.3-.6.3-1.1 0-.7-.3-1l-.8-.8zm6.5 11.1h-1.2v-13h1.2zm-10.6-3.8 8.6-.5v.9l-4 .4-4.5.1zm22.8-8.4q0 .8.6 1.5.7.8 1.8 1.3 1 .5 2.2.6l-.4 1a8 8 0 0 1-3.7-1.6q-.8-.6-1.1-1.3-.5.8-1.2 1.3l-1.7 1q-1 .4-2 .5l-.4-.9q1.2 0 2.2-.6t1.8-1.3.7-1.5v-.6h1.2zm5.3 6.3H88v-1h12zm-6 1.3q1.5 0 2.5.2t1.5.8a1.7 1.7 0 0 1 0 2.5q-.6.5-1.5.8t-2.4.3-2.5-.3-1.5-.8-.5-1.2.5-1.3 1.5-.8zm0 .8q-1.5 0-2.4.4t-.9 1q0 .8.9 1.1t2.5.4q1.5 0 2.4-.4.9-.3.9-1t-1-1q-.8-.5-2.3-.5m17.6.3h-1.1v-9.5h1.1zm.4 3.2h-8.8v-4.2h1.2v3.2h7.6zm-7.4-11.8q1 0 1.7.4.9.4 1.3 1.1t.4 1.7-.4 1.7-1.3 1-1.7.5-1.7-.4-1.3-1.1-.4-1.7q0-1 .4-1.7a3 3 0 0 1 1.3-1.1q.7-.4 1.7-.4m0 1q-.6 0-1.2.3a2 2 0 0 0-1 1.9q0 .6.2 1.1l.8.8a3 3 0 0 0 2.4 0 2 2 0 0 0 1-2 2 2 0 0 0-1-1.8zm23.4 4.7H127v-1.3h-3.5v-1h3.5v-1.5h-3.3q-.6 1.5-2.1 2.6-1.5 1-3.7 1.5l-.4-1a9 9 0 0 0 3.8-1.6 4 4 0 0 0 1.5-2.7h-4.6v-1h5.9q0 .7-.2 1.3h3v-2h1.2zm0 3.8H121v1.5h7.7v1h-8.8v-3.4h7.3v-1.4h-7.3v-.9h8.4zm9.2-8.3v.2l-.4 5-1.1-.1a28 28 0 0 0 .3-4.9h-5.4v-.9h6.6zm-3.4 7q2.4 0 4.3-.3v.8a36 36 0 0 1-7.5.5h-.6l-.2-1h2.9v-4h1zm6.2-3.7h2.1v1h-2v6.6h-1.2v-13h1.1zm14.6 1.5H143v-.9h12zm-1.4 3.8h-7.9v1.3h8.3v.8h-9.4v-2.9h7.8v-1h-7.8v-1h9zm0-7.7h-7.8v1.2h8v.8h-9.1v-2.7h7.7v-1.1h-7.8v-.8h9zm10.8 6.2 3.7-.3.1.8-4 .5h-4.5l-.2-.9h3.8v-2.5h1.1zm3-6.6h-3q0 .9.5 1.6.3.8 1.1 1.2.7.6 1.8.8l-.6 1q-1.2-.5-2-1.1t-1.4-1.7q-.3.9-1.3 1.8-.8.7-2 1l-.6-.8q1-.3 1.7-.8.8-.6 1.2-1.3t.4-1.7h-3v-1h3v-1.5h1.2v1.6h3zm2.7 10.4h-1.1v-13h1.1zm12.9-3.5h-1.2v-9.5h1.2zm.4 3.2h-8.8v-4h1.1v3h7.7zm-6.6-10.7q0 1 .4 1.9a5 5 0 0 0 3 2.6l-.7 1a6 6 0 0 1-3.2-3.4 6 6 0 0 1-1.3 2.2q-.8.9-2 1.3l-.6-.8a5 5 0 0 0 3.3-4.8v-1.3h1.1zm22 .8h1.9v1h-2v2.8h-1.1v-6.6h1.1zm0 7.6h-7.2v1.5h7.6v1h-8.7v-3.4h7.1v-1.4H190v-.9h8.3zm-6.6-10 1.7.4q.8.4 1.2 1 .5.7.5 1.5t-.5 1.5a3 3 0 0 1-1.2 1l-1.7.4q-1 0-1.7-.3a3 3 0 0 1-1.3-1q-.4-.7-.4-1.6 0-.7.4-1.5a3 3 0 0 1 1.3-1q.7-.3 1.7-.3m0 1q-.6 0-1.2.3-.5.1-.8.6t-.3 1q0 .7.3 1l.8.8a3 3 0 0 0 2.4 0l.8-.8q.2-.3.2-1l-.2-1q-.2-.5-.8-.6zm19.9 6.3h-1.2v-7.7h1.2zm-4.2-3.4H203v1.8h.6l5.6-.4.1 1a33 33 0 0 1-6.3.4h-1v-3.7h4.7v-1.7h-4.8v-1h6zm4.2 8.5h-8.5v-4.4h8.5zm-7.4-1h6.2v-2.5h-6.2zm15.3-11q1.4 0 2.5.5a4 4 0 0 1 1.7 1.2q.6.9.6 1.9a3 3 0 0 1-.6 1.9q-.7.8-1.7 1.2-1.2.5-2.5.5t-2.4-.5a4 4 0 0 1-1.7-1.2 3 3 0 0 1-.6-2q0-.9.6-1.8t1.7-1.2q1-.5 2.4-.5m0 1q-1 0-1.9.3t-1.3 1a2 2 0 0 0-.4 1.3q0 .8.4 1.4t1.3.9 2 .3q.9 0 1.8-.3a3 3 0 0 0 1.3-1q.5-.5.5-1.3t-.5-1.4-1.3-1zm6 9.5h-12v-1h12zm12.8 0h-12v-.9h5.4v-2.4H228v-4h7.8v-2.1H228v-1h9v4h-8v2.1h8v1h-4v2.4h5.5zm14.5-7.4h2v1h-2v3.8h-1.1v-8.7h1.1zm-10.2 3.5h3.6v-1q-.8 0-1.4-.3l-.8-.7q-.3-.4-.3-1t.3-1 1.1-.6l1.6-.3q1 0 1.6.3t1 .6.5 1-.7 1.4-1.8.6v.9q2.1 0 3.6-.3v.8q-1.7.4-3.8.4l-4.3.1zm10.2 5.6h-1.1v-2.7h-7.5v-1h8.6zm-2.3-11H243v-.8h3.3v-1.3h1v1.3h3.3zm-3.8 1.4q-.8 0-1.4.3t-.5.8q0 .3.2.5l.7.5h2q.5-.2.7-.5.3-.2.3-.5 0-.6-.6-.9zm19.5 6.1h-1.1v-9.5h1.1zm.4 3.2h-9v-4.2h1.1v3.2h7.7zm-7.4-11.8q1 0 1.7.4.8.4 1.2 1.1.5.7.5 1.7a3 3 0 0 1-1.7 2.8q-.7.4-1.7.4t-1.8-.4-1.2-1.1-.4-1.7.4-1.7a3 3 0 0 1 1.2-1.1q.8-.4 1.8-.4m0 1q-.7 0-1.2.3a2 2 0 0 0-1.1 1.9q0 .6.3 1.1t.8.8a3 3 0 0 0 2.3 0 2 2 0 0 0 1.2-2 2 2 0 0 0-1.2-1.8q-.5-.3-1.1-.3m19.2 1.4h2v1h-2v3.2h-1.2v-7.5h1.2zm-7.1 6.2h6v-1.4h1v4.7h-8.1v-4.7h1.1zm6 2.4v-1.5h-6v1.5zm-1.3-9.6h-7.8v-1h3.3v-1.5h1.2v1.5h3.3zm-3.9.6q1 0 1.7.3t1 .8.5 1.1q0 .8-.4 1.3l-1.1.8-1.7.2q-1 0-1.6-.2-.8-.3-1.1-.8a2 2 0 0 1-.4-1.2q0-.8.4-1.2.4-.6 1-.9zm0 .9-1 .1q-.6.2-.8.5l-.2.8.2.7.7.5 1.1.2 1-.2q.6-.2.8-.5.3-.4.3-.7 0-.5-.3-.8l-.7-.5zm19.6 9.2H291v-13h1.1zm-8.7-4.4q3.3 0 6.2-.6l.1 1a33 33 0 0 1-6.4.6h-1v-8.3h1zm20.8-3.5h2.2v1h-2.2v7h-1.1v-13.1h1.1zm-3.4-3h-5v6.7a42 42 0 0 0 6-.5l.2 1-2.9.4h-4.4v-8.5h6zm7.5 9.8-.5-.1a1 1 0 0 1-.5-.9 1 1 0 0 1 .5-.8l.5-.1.4.1.4.4a1 1 0 0 1 0 1l-.4.3zm-267.7 36.2 3.8-3.5 1-.9.4-.7.2-.8-.2-.8-.6-.5-1-.2q-.6 0-1.1.5t-.5 1.2h-2q0-1 .4-1.9t1.3-1.1q1-.5 2-.5 1.1 0 2 .5.9.3 1.3 1t.5 1.7l-.2 1.2-.9 1.3-1.7 1.7-1.6 1.5h4.5v1.9h-7.5zm10.8 1.7-.6-.1-.5-.5-.1-.6a1 1 0 0 1 .6-1 1 1 0 0 1 1.2 0q.3 0 .4.4.3.3.2.6a1 1 0 0 1-.6 1zm18-9.6h1.9v1.5h-1.8v2.6h-1.9v-6.6h1.9zm-8 2.2q2.6 0 5-.5l.3 1.5q-2.7.5-5.8.5h-1.5v-5.6h2zm8 6.1h-6.9v1H70v1.4h-9.2v-3.8h6.9v-.8h-7v-1.4h8.9zm13.2-5.8h1.5v1.6h-1.5v6.8h-1.9v-4.2l-1.1 1.3a5 5 0 0 1-1.7-2.8q-.6 2-1.9 3a5 5 0 0 1-1.8-3q-.5 2-1.7 2.8l-1.2-1.3q.9-.7 1.3-1.5l.5-2 .2-2.3v-.7h-1.4v-1.5h4v1.5H75v.7l.2 2.6q.3 1.2.9 2.2a6 6 0 0 0 .8-2.2l.2-2.6v-.7h-.8v-1.5H80v1.5h-1v3l.6 2q.5.8 1.2 1.4v-9h2zm12.3 1.4h-6.5v-5.6h6.5zm-4.7-1.4H93v-2.7h-2.8zm8.6 2.6H97v-7.6h1.8zm.3 2.1h-3.8l.6 1q.6.4 1.5.7.9.4 2.2.5l-.7 1.4q-1.6 0-2.8-.7-1-.5-1.8-1.3-.6.8-1.8 1.3t-2.8.7l-.6-1.4q1.2 0 2.2-.4l1.4-.8q.6-.6.6-1h-3.7v-1.4h3.8v-1h1.9v1H99zm9.8-7a4 4 0 0 0 1.4 3q.7.5 1.8.8l-1 1.5q-1-.3-1.9-1t-1.2-1.6a5 5 0 0 1-3.3 2.8l-1-1.4a5 5 0 0 0 1.9-1 4 4 0 0 0 1.4-3.1v-.2h-2.7v-1.5h7.3v1.5h-2.7zm6 7h-2v-9.7h2zm.3 3.4H106v-4.3h2v2.8h7.3zm12.7-4.7h-1.8v-3.6h-1v3.1h-1.8v-7.6h1.8v3h1v-3.3h1.8zm-5-5.6h-6.5v-1.4h2.3v-1.3h2v1.3h2.2zm-3.2.5q.8 0 1.5.3t1 .8.4 1.2q0 .8-.4 1.2-.3.5-1 .8l-1.5.3q-.8 0-1.5-.3t-1-.8a2 2 0 0 1-.4-1.2q0-.6.4-1.2.3-.6 1-.8t1.5-.3m0 1.3q-.6 0-.9.3t-.3.7.3.8l.9.2q.5 0 .9-.2.3-.3.3-.8t-.3-.7-1-.3m3.7 3.9q1.5 0 2.4.3 1.1.3 1.6.8a2 2 0 0 1 0 2.6q-.5.6-1.6.9-1 .3-2.4.3-1.5 0-2.5-.3t-1.6-.9-.5-1.3.5-1.3q.6-.5 1.6-.8t2.5-.3m0 1.4q-2.8 0-2.8 1 0 .5.7.8.8.3 2 .2 2.8 0 2.8-1 0-.5-.7-.7-.6-.3-2-.3m16.7-2.4h-3.9v2.8h5.2v1.5h-12.2v-1.5h5.2v-2.8h-3.7v-6.5h9.3v1.5h-7.5v3.5h7.6zm3.4 3h-.5l-.3-.4-.1-.5v-.4l.4-.4.5-.1.5.1.3.4.1.4v.5l-.4.4zm0-5.8-.5-.1-.3-.4-.1-.5v-.4l.4-.3.5-.2q.3 0 .5.2l.3.3.1.5v.4a1 1 0 0 1-.9.5m17.7 3.9h-5.4v4.6h-1.2v-4.6h-5.3v-1h12zm-6-8q1.4 0 2.4.4t1.6 1 .6 1.6-.6 1.5-1.6 1l-2.4.3-2.4-.4q-1-.3-1.6-1t-.6-1.4.6-1.6q.7-.6 1.6-1 1-.3 2.4-.3m0 1-1.8.3q-.7.1-1.2.6t-.4 1q0 .7.4 1 .4.5 1.2.7l1.8.3 1.8-.3q.8-.2 1.2-.6.4-.5.4-1 0-.7-.4-1-.4-.5-1.2-.7zm18.7 6H162v-.9h11.8zm-1.4 5.6h-1.2v-3.2h-8v-1h9.2zm-4-11.7h4.2v1h-4q0 .6.6 1.2t1.6 1l2.3.4-.4 1a10 10 0 0 1-3-.9q-1.2-.6-1.8-1.5-.6.9-1.9 1.5t-3 .8l-.3-.9q1.2 0 2.2-.4t1.7-1 .7-1.3h-4.1v-1h4.1v-1.3h1.2zm14.2.8q0 .8.5 1.7.3.8 1.1 1.4l1.7 1-.7.8a6 6 0 0 1-3.1-3 6 6 0 0 1-3.2 3.4l-.7-1q1-.3 1.7-1 .8-.7 1.2-1.5.4-1 .4-2v-1.3h1.1zm5.9 1.3h2v1h-2v3.5h-1.2v-8h1.2zm-4.2 4.8q1.4 0 2.3.3t1.5.8.5 1.3-.5 1.3q-.6.5-1.5.8t-2.3.3-2.3-.3-1.5-.8-.5-1.3.5-1.3 1.5-.8 2.3-.3m0 1-1.7.1q-.7.2-1 .5a1 1 0 0 0-.5.8q0 .4.4.8.4.3 1.1.5l1.7.2q1.5 0 2.3-.5.9-.3.9-1a1 1 0 0 0-.4-.8q-.4-.3-1.1-.5zm17-5.4h2v1h-2v4.6h-1.2v-9.4h1.1zm-3.8-1.7h-4.7v4l5.9-.4.1 1a24 24 0 0 1-6.1.4h-1v-6h5.8zm4.3 10.6h-8.7v-4.2h1.1v3.2h7.6zm6.3-11.8q1 0 1.8.4t1.2 1 .5 1.7a3 3 0 0 1-1.7 2.6 4 4 0 0 1-1.8.4q-1 .1-1.8-.4a3 3 0 0 1-1.3-1q-.4-.7-.4-1.6t.4-1.6a3 3 0 0 1 1.3-1.1q.8-.4 1.8-.4m0 1q-.7 0-1.3.3l-.8.7q-.3.5-.3 1a2 2 0 0 0 1.1 1.9l1.3.2 1.2-.2.8-.7q.4-.6.4-1.1 0-.7-.4-1l-.8-.8zm6.4 11.1h-1.1v-13h1.1zm-10.6-3.8 8.6-.5v.9q-1.8.3-4 .4l-4.4.1zm20.8-6.9q0 .7.4 1.6.5.7 1.2 1.3.7.5 1.7.8l-.6 1-2-1.2q-1-.7-1.3-1.7-.3 1.1-1.3 1.9-.8.8-2 1.1l-.6-.9q1-.3 1.7-.9.8-.5 1.2-1.3.5-.8.5-1.7v-.2h-3v-1h7v1h-2.9zm0 7 3.5-.4.1.9-3.8.4h-4.3l-.2-.9h3.6v-2.7h1.1zm7.6-3h-2v6.7h-1.2v-13h1.1v5.4h2.1zm12.5 2.1h-5.4v4.6h-1.1v-4.6H233v-1h12zm-6-8q1.4 0 2.4.4 1.1.4 1.6 1t.6 1.6q0 .8-.6 1.5t-1.6 1l-2.4.3-2.4-.4q-1-.3-1.6-1t-.6-1.4.6-1.6q.7-.6 1.6-1 1-.3 2.4-.3m0 1-1.8.3q-.7.1-1.2.6t-.4 1q0 .7.4 1 .4.5 1.2.7l1.8.3 1.8-.3q.8-.2 1.2-.6.4-.5.4-1 0-.7-.4-1-.4-.5-1.2-.7zm20.5 4.1h2.1v1h-2v6.5h-1.2v-13h1.1zm-10.2 4h3.6v-1.5q-.8 0-1.4-.4l-.8-.8q-.3-.5-.3-1.1 0-.8.3-1.3.5-.5 1.1-.8l1.7-.3 1.5.3q.8.3 1.1.8t.4 1.3a2 2 0 0 1-1.2 2l-1.3.3v1.4l3.6-.3v.9l-3.8.4-4.3.1zm8-7h-7.8v-1h3.4v-1.5h1.1v1.6h3.4zm-3.8 1.6-1 .2q-.6.2-.8.6t-.3.8.3.8l.7.5 1 .2q.7 0 1-.2.6-.2.8-.5l.2-.8-.2-.8-.7-.6zm13-2.6q0 .7.5 1.6.4.8 1.1 1.4t1.7.8l-.6 1-2-1.2q-.7-.7-1.2-1.7-.4 1.2-1.2 2-1 .8-2 1.2l-.7-.9q1-.3 1.8-1 .7-.6 1.1-1.4a4 4 0 0 0 .4-1.8v-1h1.2zm5.9 1.3h2v1h-2v3H271v-6.8h1.2zm0 7.7H265v1.4h7.7v1H264v-3.3h7.1v-1.3H264v-1h8.3zm14.5.9h-12v-1h3.4v-3H276v-1h2v-4.3h-2v-1h9.6v1h-2v4.3h2v1h-2.2v3h3.4zm-4.3-5v-4.3H279v4.3zm-.3 4v-3h-2.9v3zm17.4 1h-12v-1h5.4v-2.4H289v-4h7.8v-2.1H289v-1h9v4h-7.8v2.1h8v1H294v2.4h5.5zm14.4-6.3h2.2v1H314v7h-1v-13.1h1.1zm-3.4-3h-5v6.7a42 42 0 0 0 6-.5l.2 1-2.9.4h-4.3v-8.5h6zm18 6h-11.9v-1h12zm-1.2 4.6h-9.1v-3.5h1.1v2.5h8zm-.3-9h-7.7v1.4h8v.9h-9.1v-3.2h7.6v-1.5h-7.7v-.9h8.9zm-257.9 21h2v1h-2v2.8H68v-6.5h1.1zm-8.4 2.2a35 35 0 0 0 5.9-.5l.1 1a29 29 0 0 1-6.1.5h-1v-5.3h1.1zm8.4 5.5H62v1.5h7.6v1h-8.8v-3.5H68v-1.3h-7.2v-1h8.3zm13-5.2H84v1h-1.8v6.8H81v-13h1.2zm-7.4-1.3q0 1.4.2 2.7t1 2.2q.7-.9 1-2.2l.3-2.7v-1.6h-1v-1H80v1h-1.5v1.6q0 1.7.5 3.2t1.6 2.3l-.8.9a6 6 0 0 1-1.8-3.4q-.6 2.4-1.9 3.5-1.3-1-1.8-3.5-.6 2.4-1.8 3.4l-.8-.9a4 4 0 0 0 1.2-1.5l.7-2 .2-2v-1.6H72v-1h3.7v1h-1zm21.7 7.5h-12v-1H90v-2.4h-4v-4h7.8v-2.1H86v-1h9v4h-7.8v2.1h8v1H91v2.4h5.5zm15.1 1.6h-1.1v-13h1.1zm-7-12q1 0 1.8.5.8.7 1.2 1.6t.4 2.4q0 1.4-.4 2.4t-1.2 1.6-1.7.5-1.7-.5q-.8-.7-1.2-1.6t-.4-2.4.4-2.4 1.2-1.5 1.7-.6m0 1q-.5 0-1 .5-.6.3-.8 1.2t-.3 1.8q0 1 .3 1.9t.7 1.2a2 2 0 0 0 2.3 0q.5-.5.8-1.2.3-.9.3-1.9t-.3-1.8-.8-1.2q-.5-.6-1.1-.5m21 5.3h-12v-.9h5.4v-1.5h-3.8v-4.3h8.8v.9h-7.7v2.5h7.8v.9h-4v1.5h5.4zm-6 1q1.4 0 2.4.3t1.5.8.6 1.2-.6 1.3q-.5.6-1.5.8t-2.4.3-2.4-.3-1.6-.8-.5-1.3q0-.7.5-1.2t1.6-.8q.9-.3 2.4-.3m0 .9q-1 0-1.8.2-.7 0-1.2.5l-.3.7q0 .5.3.8l1.2.5 1.8.2q1 0 1.8-.2.7-.2 1.1-.5t.4-.8l-.4-.7q-.4-.4-1.1-.5zm16.9-3.9h2.2v1h-2.2v6.7h-1.2v-13h1.2zm-2.4-2.3h-7.8v-1h3.4v-1.9h1.1v2h3.3zm-3.8 1q.9 0 1.6.5.8.3 1.2 1t.4 1.6-.4 1.5-1.2 1q-.7.5-1.6.5t-1.7-.4a3 3 0 0 1-1.5-2.6q0-.9.4-1.6t1.1-1 1.7-.4m0 1q-.6 0-1.1.3a2 2 0 0 0-1 1.8q0 .6.2 1t.8.7 1 .3q.7 0 1.1-.3a2 2 0 0 0 1-1.7l-.2-1-.8-.8q-.4-.2-1-.2m12.4-4q.9 0 1.6.5.6.5 1.1 1.4h3.4v-3h1.2v13.1h-1.2v-5h-3.3q-.4.9-1.2 1.5-.6.6-1.6.5t-1.7-.5q-.7-.7-1.2-1.6t-.4-2.4.4-2.4 1.2-1.5 1.7-.6m0 1q-.6 0-1.2.5-.4.3-.7 1.2t-.3 1.8.3 1.9q.3.8.7 1.2a2 2 0 0 0 2.3 0q.5-.5.8-1.2.3-.9.2-1.9t-.2-1.8-.8-1.2q-.5-.6-1.1-.5m3 1.8a7 7 0 0 1 0 3.2h3.1v-3.2zm16.3-.6h-6.5v-1h2.7v-1.8h1.1v1.8h2.7zm-3.3.8a3 3 0 0 1 2.5 1.5q.3.7.4 1.5 0 .8-.4 1.5a3 3 0 0 1-2.5 1.5q-.8 0-1.4-.4-.7-.4-1-1t-.4-1.6.4-1.5q.3-.7 1-1 .6-.5 1.4-.5m0 1-.9.3q-.4.3-.6.7t-.2 1 .2 1l.6.7q.4.3 1 .3l.9-.3q.4-.2.6-.7.3-.4.2-1t-.2-1-.6-.7-1-.3m7.9 8h-1.1v-6.6h-1.7v6h-1.1v-12.1h1v5.2h1.8v-5.5h1zm11.9-9.6h2v1h-2v3.3h-1.2v-7.7h1.2zm-4.2 4.6q1.3 0 2.3.3t1.4.8.6 1.4-.6 1.3-1.4.9-2.3.3-2.3-.3-1.5-.9-.5-1.3.5-1.4 1.5-.8 2.3-.3m0 1-1.7.1q-.8.2-1.1.5a1 1 0 0 0-.4.9q0 .5.4.8l1 .5q.8.3 1.8.2t1.7-.2 1-.5q.5-.3.5-.8a1 1 0 0 0-.4-.9l-1.1-.5zm.4-7H170v3.7l5.9-.4.1 1-2.6.3h-4.5v-5.6h5.8zm20 .7h2v1h-2v2.8h-1v-6.5h1zm-8.3 2.2a35 35 0 0 0 5.9-.5l.1 1a29 29 0 0 1-6.1.5h-1v-5.3h1zm8.4 5.5h-7.2v1.5h7.7v1h-8.8v-3.5h7.1v-1.3h-7.1v-1h8.3zm13-5.2h1.8v1h-1.9v6.8h-1.1v-13h1.1zm-7.5-1.3.3 2.7q.3 1.3 1 2.2.7-.9 1-2.2l.3-2.7v-1.6h-1v-1h3.6v1H204v1.6q0 1.7.5 3.2t1.5 2.3l-.7.9a6 6 0 0 1-1.9-3.4q-.5 2.4-1.8 3.5-1.3-1-1.8-3.5-.6 2.4-1.9 3.4l-.7-.9a4 4 0 0 0 1.2-1.5q.5-.8.6-2l.2-2v-1.6h-1.6v-1h3.7v1h-1zm14-3q1.2 0 1.9.4.8.4 1.2 1 .5.7.5 1.7a3 3 0 0 1-.5 1.6 3 3 0 0 1-1.2 1 4 4 0 0 1-1.8.4q-1 .1-1.8-.4a3 3 0 0 1-1.7-2.7q0-.8.4-1.5a3 3 0 0 1 1.3-1.1q.8-.4 1.8-.4m0 1-1.2.3-.8.7q-.3.5-.3 1a2 2 0 0 0 1.1 1.9l1.3.2 1.2-.2.9-.7q.3-.6.3-1.1 0-.7-.3-1l-.9-.8zm6.5 11.1h-1.1v-13h1.1zm-10.6-3.8 8.6-.5v.9q-1.8.3-4 .4l-4.4.1zm20-5.2a6 6 0 0 0 1.4 3.9q.7.8 1.5 1.3l-.7.8a5 5 0 0 1-1.6-1.4 7 7 0 0 1-1-2.2 8 8 0 0 1-1.1 2.3q-.7 1-1.7 1.6l-.7-.9q.9-.4 1.6-1.3l1-2 .3-2.1v-.7h-2.5v-1h2.5v-1.8h1v1.9h2.5v1h-2.4zm7.4 9h-1.1v-13h1zm-2.7-.7h-1v-6.2h-2v-1h2v-4.8h1zm14.7-9.4-.2 4q0 1.1-.3 2.3h-1.2q.4-1.8.5-3.4l-8 .4-.1-1 8.2-.3v-2.6h-7.8v-1h8.9zm1.5 8.3h-11.9v-1h11.9zm11.6 1.8h-1.1v-13h1.1zm-4-7.2H254v3a47 47 0 0 0 6.4-.4l.1 1a36 36 0 0 1-6.6.5h-1v-5h4.8v-2.8h-4.9v-1h6zm12.5-4q0 1.2.7 2.1t1.9 1.7a7 7 0 0 0 2.3 1l-.6.9a8 8 0 0 1-3.7-2l-1.2-1.8q-.3 1-1.1 1.7a7 7 0 0 1-3.7 2l-.6-.9a7 7 0 0 0 4.1-2.6q.7-1 .7-2v-1h1.2zm5.5 9.4h-12v-1h12zm11.4-3.2h-9v-7h8.8v1h-7.7v2h7.4v1h-7.4v2h7.9zm1.3 3.3h-11.9v-1h12zm4.8-10.5a4 4 0 0 1 1.8.4q.8.4 1.2 1 .5.7.5 1.7 0 .8-.4 1.4l-1 1-1.5.6v2.2l3.6-.3v.9a34 34 0 0 1-7.3.5h-.8l-.2-1h3.5v-2.3q-.8 0-1.5-.5t-1-1q-.4-.7-.4-1.5a3 3 0 0 1 1.7-2.7q.8-.4 1.8-.4m0 1q-.7 0-1.2.3l-.9.7q-.3.5-.2 1 0 .7.2 1.1t.9.8l1.2.2 1.2-.2a2 2 0 0 0 1.1-1.8l-.3-1-.8-.8zm6.1 3.5h2.2v1h-2.2v6.7h-1.1v-13h1.1zm12.7-3.6h-4.7v3.4h.5l5.4-.5.1 1-2.4.3-3.1.1h-1.6v-5.3h5.8zm3.8 1h2v1h-2v2.8h-1.2v-6.5h1.2zm0 7.7h-7.2v1.5h7.7v1h-8.8v-3.4h7.1v-1.4h-7.1v-1h8.3zm7-8.4q0 .9.4 1.8t1.2 1.4q.7.7 1.7 1l-.7.8a6 6 0 0 1-3.1-3 6 6 0 0 1-3.3 3.5l-.7-1q1-.3 1.8-1a5 5 0 0 0 1.6-3.4v-1.4h1.1zm6.4 5.7H329v-4h-2.9v-1h2.9v-2.7h1.2zm-4.4.4 2.4.3q.9.3 1.5.8t.5 1.3-.5 1.3q-.6.6-1.5.9t-2.4.3q-1.3 0-2.3-.3t-1.5-.9-.5-1.3.5-1.3q.4-.6 1.5-.8zm0 .9q-1 0-1.7.2-.7.1-1.1.5a1 1 0 0 0-.4.8q0 .5.4.8t1.1.5 1.7.2 1.8-.2q.6 0 1-.5a1 1 0 0 0 0-1.6l-1-.5q-.7-.2-1.8-.2m-256.3 20h-4v3.4H71v1H59v-1h5.4v-3.4h-3.8v-6h8.8v1h-7.7v4h7.8zm3.3 7.8h-1.1l.8-4H74zm18.1-3.5H79v-1h5.4v-2.7h-4v-6.7h1.2v2.4h6.7v-2.4h1.2v6.7h-4v2.8h5.4zm-2.6-4.7v-2.4h-6.7v2.4zm7.8-4.5q0 .8.4 1.7t1.2 1.4l1.7 1-.7.8a6 6 0 0 1-3.1-3 6 6 0 0 1-3.3 3.4l-.6-1a5 5 0 0 0 2.9-2.5q.4-1 .4-2v-1.3h.8zm5.9 1.3h2v1h-2v3.5H101v-8h1.2zm-4.2 4.8q1.3 0 2.3.3t1.5.8.5 1.3-.5 1.3-1.5.8-2.3.3q-1.5 0-2.3-.3-1-.3-1.5-.8t-.5-1.3.5-1.3 1.5-.8 2.3-.3m0 1-1.7.1q-.8.2-1.1.5a1 1 0 0 0-.4.8q0 .4.4.8l1 .5 1.8.2q1.5 0 2.3-.5.9-.3.9-1a1 1 0 0 0-.4-.8q-.4-.3-1.1-.5zm12.7-9q1.5 0 2.5.3t1.5.7.6 1.2q0 1.1-1.2 1.7a8 8 0 0 1-3.4.6q-1.5 0-2.5-.2t-1.6-.8-.5-1.3q0-.6.5-1.2t1.6-.7q1-.3 2.5-.3m0 .9-1.9.1q-.8.2-1.1.5-.4.4-.4.7 0 .7.8 1a7 7 0 0 0 2.6.5q1.5 0 2.5-.4t.9-1-.4-.8l-1.2-.5zm5.9 5.4h-11.9v-.9h11.9zm-1.5 4H107v1.4h8.2v1H106v-3.2h7.8v-1.2H106v-.8h8.9zm17.9.8h-12v-1h5.4v-3.1h1.2v3.1h5.4zm-5.4-8.9q0 1 .7 2 .7.8 1.9 1.5l2.2.8-.5.9q-1-.2-2-.7t-1.7-1.2a5 5 0 0 1-1.2-1.6q-.3.9-1.2 1.6a8 8 0 0 1-3.7 2l-.4-1a7 7 0 0 0 4-2.4 3 3 0 0 0 .7-1.9v-.3H122v-1h10v1h-4.4zm17 10.6h-1.2v-13h1.1zm-10.7-3.5h3.7v-1.5q-.8 0-1.4-.4-.5-.2-.8-.8l-.4-1.1q0-.8.4-1.3t1.1-.8 1.7-.3 1.6.3 1.1.8.4 1.3a2 2 0 0 1-1.2 2l-1.3.3v1.4q2 0 3.7-.3v.9a37 37 0 0 1-8.4.5zm8.3-7h-8v-1h3.4v-1.5h1.2v1.6h3.4zm-4 1.6-1.1.2q-.5.2-.7.6-.3.3-.3.8t.3.8.7.5l1 .2q.7 0 1.1-.2l.8-.5.2-.8q0-.5-.2-.8l-.8-.6zm18.6-.8h2v1h-2v3.2h-1.2v-7.5h1.2zm-7.1 6.2h6v-1.4h1v4.7h-8.2v-4.7h1.2zm6 2.4v-1.5h-6v1.5zm-1.3-9.6h-7.8v-1h3.3v-1.5h1.2v1.5h3.3zm-3.9.6q1 0 1.6.3.8.2 1.1.8.4.5.4 1.1 0 .8-.4 1.3-.3.5-1 .8l-1.7.2q-1 0-1.7-.2t-1-.8a2 2 0 0 1-.4-1.2q-.1-.8.4-1.2.3-.6 1-.9zm0 .9-1 .1-.8.5q-.2.3-.2.8l.2.7.7.5 1.1.2 1-.2.8-.5.3-.7q0-.5-.3-.8l-.7-.5zm19.6 9.2H169v-13h1zm-8.8-4.4q3.3 0 6.3-.6l.1 1a33 33 0 0 1-6.4.6h-1v-8.3h1zm20.9-3.5h2.2v1H182v7h-1.1v-13.1h1.1zm-3.4-3h-5v6.7a42 42 0 0 0 6-.5l.1 1-2.8.4h-4.4v-8.5h6zm7.5 9.8-.5-.1a1 1 0 0 1-.5-.9 1 1 0 0 1 .5-.8l.5-.1.4.1.4.4a1 1 0 0 1 0 1l-.4.3zm-141.9 37.7q-1.2 0-2-.5-1-.3-1.5-1t-.6-1.7h2.3q0 .4.2.7l.7.5.9.1 1-.1.6-.6.2-.7q0-.5-.2-.8l-.7-.5-1.1-.2h-1v-1.6h1l1-.2.5-.5q.3-.3.3-.7l-.2-.7q-.2-.3-.6-.5l-.8-.2q-.5 0-.8.2-.4 0-.7.4l-.2.7h-2.1q0-.9.5-1.6t1.4-1q.8-.5 2-.5 1 0 1.8.4t1.3 1.1a3 3 0 0 1 .2 2.6q-.2.5-.7.8l-1 .4 1.3.5q.5.3.8.8l.3 1.2q0 1-.5 1.6-.6.8-1.5 1.2t-2.1.4m7 0-.6-.2-.5-.5-.1-.6a1 1 0 0 1 .6-1 1 1 0 0 1 1.2 0q.3 0 .4.4.3.3.2.6a1 1 0 0 1-.6 1zM63 1195q0 1.5.6 3 .6 1.4 2 2l-1 1.4q-.9-.5-1.5-1.2t-1-1.8l-1 2q-.6.8-1.5 1.3l-1-1.4q1.2-.7 2-2.2.6-1.5.6-3.1v-.3H59v-1.5h2.2v-1.8H63v1.8h2.2v1.5H63zm7.3 9.3h-1.7V1191h1.7zm-2.7-.7h-1.8v-6.1h-1.5v-1.5h1.5v-4.9h1.8zm14.9-10-.2 4.2-.4 2.5-1.9-.2.5-3-7.7.4-.3-1.5 8.1-.2v-2.2H73v-1.5h9.5zm1.2 9h-12v-1.5h12.1zm11.8 1.7h-1.9V1191h1.9zm-4.1-7.1H87v2.4l5.7-.4.1 1.5a30 30 0 0 1-6.6.5H85v-5.5h4.5v-2.2H85v-1.5h6.4zm12.7-4.5q0 1 .6 2t1.6 1.6 2.5 1l-.8 1.5a8 8 0 0 1-3-1.3 6 6 0 0 1-1.9-2.2q-.6 1.3-2 2.2-1.2.9-2.9 1.3l-.8-1.6q1.5-.2 2.5-1 1.1-.7 1.6-1.6t.6-2v-.9h2zm5.2 10H97.2v-1.6h12.2zm11.4-3.4h-9.4v-7.4h9.3v1.5h-7.4v1.4h7.1v1.5h-7.1v1.5h7.5zm1.4 3.4H110v-1.5h12.2zm2-1.2-.5-.1-.3-.4-.1-.5.1-.4q0-.3.3-.4l.5-.1.5.1.3.4.2.4q0 .3-.2.5 0 .3-.3.4zm0-5.9-.5-.1-.3-.4-.1-.5.1-.4a1 1 0 0 1 .8-.5q.3 0 .5.2l.3.3.2.5-.2.4a1 1 0 0 1-.8.5m9.7-2 .3 1.5q.3.6 1 1.2t1.4.9l-.6.9a5 5 0 0 1-2.6-2.6q-.4 1-1.1 1.8t-1.6 1.1l-.7-.9a5 5 0 0 0 2.5-2.3l.3-1.5v-1.8h1.1zm7.2 5.5h-1v-3.6h-1.7v3.2h-1.1v-7.4h1v3.3h1.8v-3.5h1zm-4.3.3q1.3 0 2.3.3t1.5.8.6 1.2-.6 1.3-1.5.8-2.3.3l-2.4-.3q-.9-.3-1.5-.8t-.5-1.3.5-1.2q.6-.5 1.5-.8zm0 .9q-1 0-1.7.2-.8.1-1.2.5l-.3.7q0 .5.3.8l1.1.5 1.8.2q1 0 1.7-.2t1.1-.5.4-.8l-.4-.7q-.4-.3-1.1-.5zm16.1-5.9h2v1h-2v3.3h-1.1v-7.6h1.1zm0 7.6h-7.3v1.1h7.8v.8h-8.9v-2.7h7.3v-1h-7.3v-.9h8.4zm-10.2-4.4h3.6v-.9q-1.2 0-1.9-.5t-.6-1.2q0-.4.3-.9l1.1-.6 1.6-.2 1.6.2 1 .6q.5.4.5 1t-.7 1.1-1.8.5v.8q2.1 0 3.6-.3v.8l-3.8.4H143zm7.9-4.7H143v-.8h3.3v-1.2h1.1v1.2h3.2zm-3.8 1.2q-.8 0-1.4.3-.6.1-.5.6t.5.7 1.4.3 1.4-.3.6-.7-.6-.6-1.4-.3m19.5-1.3-.3 3.7h-1.2l.4-3.6h-5.4v-1h6.5zm-3.3 5 4.3-.4v.9l-3.8.4h-4.3l-.2-.9h2.8v-2.8h1.2zm6.3-2.5h2v1h-2v4.6H168v-9.8h1.2zm.4 8.5H161v-3.8h1.2v2.8h7.5zm13 .3h-1.2v-13h1.1zm-4-7.2h-4.9v3a47 47 0 0 0 6.4-.4l.1 1a36 36 0 0 1-6.6.5h-1v-5h4.8v-2.8h-4.9v-1h6zm9.9-5 1.7.4q.9.4 1.3 1t.4 1.7q0 .8-.3 1.4l-1 1-1.5.6v2.2l3.5-.3.1.9a34 34 0 0 1-7.3.5h-.8l-.2-1h3.5v-2.3q-.8 0-1.5-.5t-1-1q-.4-.7-.4-1.5a3 3 0 0 1 1.7-2.7q.7-.4 1.8-.4m0 1q-.7 0-1.2.3l-.9.7q-.3.5-.3 1 0 .7.3 1.1t.8.8l1.3.2 1.2-.2a2 2 0 0 0 1.1-1.8l-.3-1-.8-.8zm6.1 3.5h2.1v1h-2.1v6.7h-1.1v-13h1.1zm14-3H201v-1h3.3v-1.4h1.2v1.5h3.3zm-3.8.7q.9 0 1.6.3t1.1.8.4 1.2-.4 1.3-1 .8q-.8.3-1.7.3-1 0-1.7-.3t-1-.8a2 2 0 0 1-.5-1.3q0-.6.4-1.2l1.1-.8q.7-.3 1.7-.3m0 .9q-.6 0-1.1.2-.4.1-.7.5t-.3.7q0 .5.3.8l.7.5 1 .2 1.1-.2q.6-.2.8-.5a1 1 0 0 0 0-1.5q-.2-.3-.8-.5-.4-.2-1-.2m6.2-.3h2v1h-2v3.5h-1v-8.1h1zm0 9.4h-1v-3.2h-7.5v-1h8.5zm5.3-3.7h6.5v-1.5h1.1v5h-8.8v-5h1.2zm6.5 2.6v-1.7h-6.5v1.7zm2.7-5h-11.9v-1h11.9zm-5.3-6.2q0 .7.6 1.5t1.8 1.2q1.1.6 2.2.7l-.4.9a9 9 0 0 1-3.7-1.5q-.8-.6-1.1-1.3-.4.7-1.2 1.3l-1.7 1-2 .5-.4-1q1.2 0 2.3-.6t1.7-1.2q.7-.7.7-1.5v-.6h1.2zm17 1-.4 3.7h-1.1a16 16 0 0 0 .3-3.6h-5.3v-1h6.5zm-3.4 5 4.3-.4v.9l-3.8.4H230l-.1-.9h2.8v-2.8h1.1zm6.4-2.5h1.9v1h-2v4.6H239v-9.8h1.2zm.4 8.5H232v-3.8h1.2v2.8h7.5zm12.9.3h-1.2v-13h1.2zm-4-7.2h-4.8v3a47 47 0 0 0 6.4-.4v1a36 36 0 0 1-6.5.5h-1.1v-5h4.9v-2.8h-5v-1h6.1zm18 5.6h-12v-1h5.3v-2.4H257v-4h7.8v-2.1H257v-1h8.9v4h-7.8v2.1h8.1v1H262v2.4h5.4zm16.5-5.3h-2v6.9h-1.1v-13h1.1v5.2h2.1zm-10.5 2.6a33 33 0 0 0 6-.6l.1 1a27 27 0 0 1-6.2.6h-1v-8.5h1.1zm21.6-3.4h-9v-4.7h1.2v3.8h7.8zm1.4 3h-5.4v4.7H290v-4.8h-5.3v-1h12zm4.3-7.3q1 0 1.6.5.8.5 1.2 1.3l.5 2.1h2.9v-5h1.1v13.1H307v-7.1h-3a6 6 0 0 1-.4 2.2q-.5 1-1.1 1.4-.7.6-1.7.5t-1.7-.5l-1.1-1.6q-.4-1-.4-2.4t.4-2.4 1.1-1.5 1.7-.6m0 1q-.6 0-1 .5-.6.3-.9 1.2l-.2 1.8q0 1 .2 1.9t.8 1.2 1.1.4 1.2-.4.7-1.2q.3-.9.3-1.9t-.3-1.8-.7-1.2q-.5-.6-1.2-.5m14 .8q0 .7.4 1.6.5.8 1.2 1.4l1.7 1-.6.8q-1-.3-2-1.1a5 5 0 0 1-1.3-1.8q-.3 1-1.3 2-.8.8-2 1.2l-.6-1q1-.2 1.7-1 .8-.5 1.2-1.4t.4-1.7v-.8h-3v-1h7.2v1h-3zm6 6.7h-1v-9.5h1zm.5 3.2h-8.8v-4h1v3h7.8zm11-11.9q1.5 0 2.5.5 1.2.3 1.7 1.2.6.7.6 1.7t-.5 1.7-1.5 1.2q-.9.5-2.2.5v2.8h5.5v1h-12v-1h5.4v-2.8q-1.2 0-2.2-.5-.9-.5-1.5-1.2t-.5-1.7.6-1.7q.6-.9 1.7-1.2 1.1-.5 2.5-.5m0 1q-1 0-1.8.3t-1.3.9a2 2 0 0 0-.5 1.2q0 .8.5 1.3t1.3.9a6 6 0 0 0 3.8 0l1.2-.9q.5-.6.5-1.3t-.5-1.2a3 3 0 0 0-1.3-1zm-262.9 24.3h-8.9v-4h1.2v3h7.7zm1.4 2.2H59v-1h12zm-1.5 4.2h-7.7v1.4h8.2v1h-9.4v-3.3h7.8v-1.2h-7.8v-1h8.9zm6.7-9.6q.9 0 1.8.4t1.2 1q.5.7.5 1.7a3 3 0 0 1-1.7 2.6 4 4 0 0 1-1.8.4q-1 .1-1.9-.4a3 3 0 0 1-1.7-2.7q0-.8.5-1.5a3 3 0 0 1 1.2-1.1q.9-.4 1.9-.4m0 1q-.8 0-1.3.3l-.8.7q-.3.5-.3 1a2 2 0 0 0 1.1 1.9l1.3.2 1.2-.2.8-.7q.3-.6.3-1.1 0-.7-.3-1l-.8-.8zm6.4 11.1h-1.2v-13h1.2zm-10.6-3.8 8.6-.5v.9l-4 .4-4.5.1zm26.6-4.3h-3.9v1.7h5.4v1H88v-1h5.4v-1.7h-3.8v-4.4h8.8zm-7.7-1h6.5v-2.5h-6.5zm7.7 9h-1.1v-3h-8v-1h9.1zm14.3-1.5h-12v-1h3.4v-3H102v-1h2v-4.3h-2v-1h9.7v1h-2.1v4.3h2v1h-2.2v3h3.4zm-4.3-5v-4.3H105v4.3zm-.2 4v-3h-3v3zm16.1-3.4h-1.1v-7h1.1zm-7.3 2.2h6.2v-1.6h1.1v5.2H116v-5.2h1.1zm6.2 2.7v-1.8H117v1.8zm-6-11.3a4 4 0 0 1 1.8.4q.8.3 1.2 1 .5.7.5 1.6t-.5 1.5a3 3 0 0 1-1.2 1.1l-1.7.4a4 4 0 0 1-1.8-.4 3 3 0 0 1-1.2-1q-.4-.7-.4-1.6t.4-1.6a3 3 0 0 1 1.2-1 4 4 0 0 1 1.8-.4m0 1q-.6 0-1.1.2l-.8.8q-.3.4-.3 1t.3 1q.3.6.8.8t1.2.2q.6 0 1.1-.2t.9-.7q.3-.6.3-1.1t-.3-1l-.9-.8zm19.8 11.4h-1v-13h1zm-8.7-4.4q3.3 0 6.2-.6l.2 1a33 33 0 0 1-6.5.6h-1v-8.3h1zm20.9-3.5h2.1v1h-2.1v7H148v-13.1h1.2zm-3.5-3h-5v6.7a42 42 0 0 0 6-.5l.2 1-2.8.4h-4.4v-8.5h6zm7.5 9.8-.5-.1a1 1 0 0 1-.4-.9 1 1 0 0 1 .4-.8l.5-.1.5.1.3.4a1 1 0 0 1 0 1l-.3.3zm12.6-2.2h-6v-8.5h6zm-5-1h3.9v-6.5H161zm9 4.3h-1.2v-13h1.1zm6.4-10.6q0 .9.4 1.8a5 5 0 0 0 2.8 2.6l-.6 1a6 6 0 0 1-3.1-3.3 6 6 0 0 1-1.3 2q-.8 1-2 1.5l-.6-1a5 5 0 0 0 2.9-2.7q.3-.8.4-2v-1.6h1.1zm6.4 7.3h-1.2v-4.2h-2.7v-1h2.7v-1.6h-2.7v-1h2.7v-2h1.2zm.3 3h-8.8v-4h1.2v3h7.5zm5.9-11.8q1 0 1.8.4t1.2 1 .5 1.7a3 3 0 0 1-1.7 2.6 4 4 0 0 1-1.8.4q-1 .1-1.8-.4a3 3 0 0 1-1.3-1q-.4-.7-.4-1.6t.4-1.6a3 3 0 0 1 1.3-1.1q.8-.4 1.8-.4m0 1q-.8 0-1.2.3l-.9.7q-.3.5-.3 1a2 2 0 0 0 1.2 1.9l1.2.2 1.2-.2.9-.7q.3-.6.3-1.1 0-.7-.3-1l-.9-.8q-.5-.3-1.2-.3m6.4 11.1h-1.1v-13h1.1zm-10.6-3.8 8.6-.5v.9q-1.8.3-4 .4l-4.4.1zm27.4 3.8H211v-6.7h-1.8v6H208v-12h1v5h2v-5.3h1zm-9.3-4.4 4.2-.4.2 1-4.8.4h-.8v-8h1.2zm22.8-1.2h-11.9v-1h3v-1.8l-1.2-.8q-.5-.4-.5-1.2t.6-1.3 1.6-.8 2.5-.3q1.3 0 2.4.3t1.6.8.6 1.3-.5 1.2-1.2.8v1.8h3zm-6 1q1.5 0 2.5.2t1.5.8a1.7 1.7 0 0 1 0 2.5q-.6.6-1.5.8t-2.4.3-2.5-.3-1.5-.8-.5-1.2.5-1.3 1.5-.8zm0 .8q-1.5 0-2.4.4t-.9 1 .4.8l1.2.5 1.8.2q1 0 1.7-.2l1.2-.5q.3-.3.4-.7 0-.7-1-1-.8-.5-2.3-.5m0-8-1.8.1-1.2.5-.4.8q0 .5.4.8t1.2.6l1.8.1 1.9-.1q.8-.2 1.2-.6t.4-.8-.4-.8l-1.2-.5zm1.9 5.2v-1.5a12 12 0 0 1-3.7 0v1.5zm11-6.2q1.3 0 2.4.3t1.6.7q.5.6.5 1.2 0 1.1-1.2 1.7a8 8 0 0 1-3.4.6q-1.5 0-2.5-.2t-1.6-.8-.5-1.3q0-.6.5-1.2.7-.5 1.6-.7 1-.3 2.5-.3m0 .9-2 .1-1.1.5q-.4.4-.4.7 0 .7.9 1a7 7 0 0 0 2.5.5q1.7 0 2.5-.4 1-.4 1-1t-.5-.8l-1.1-.5zm5.8 5.4h-11.8v-.9h11.8zm-1.5 4h-7.7v1.4h8.1v1H228v-3.2h7.8v-1.2H228v-.8h9zm16.2-6.6h2v1h-2v3.8h-1.2v-8.7h1.2zm-10.2 3.5h3.5v-1q-.8 0-1.3-.3l-1-.7-.2-1q0-.5.4-1 .3-.4 1-.6l1.6-.3q1 0 1.6.3.8.2 1.1.6.4.5.4 1 0 .8-.7 1.4t-1.8.6v.9q2.1 0 3.6-.3l.1.8q-1.8.4-3.8.4l-4.4.1zm10.2 5.6h-1.2v-2.7h-7.5v-1h8.7zm-2.4-11h-7.5v-.8h3.2v-1.3h1.1v1.3h3.2zm-3.8 1.4q-.8 0-1.4.3t-.5.8q0 .3.2.5l.7.5h2q.6-.2.8-.5l.2-.5q0-.6-.5-.9zm19.5 6.1h-1.1v-9.5h1.1zm.4 3.2H258v-4.2h1.2v3.2h7.6zm-7.4-11.8q1 0 1.7.4.9.4 1.3 1.1t.4 1.7a3 3 0 0 1-1.7 2.8q-.7.4-1.7.4t-1.8-.4-1.2-1.1-.4-1.7.4-1.7a3 3 0 0 1 1.2-1.1q.8-.4 1.8-.4m0 1q-.6 0-1.2.3a2 2 0 0 0-1 1.9q-.1.6.2 1.1l.8.8a3 3 0 0 0 2.4 0 2 2 0 0 0 1-2 2 2 0 0 0-1-1.8zm19.1 3.4h2.2v1h-2.2v6.7h-1.1v-13h1.1zm-2.4-2.3h-7.7v-1h3.3v-1.9h1.2v2h3.2zm-3.8 1q1 0 1.6.5.8.3 1.2 1t.4 1.6-.4 1.5-1.2 1q-.6.5-1.6.5t-1.6-.4a3 3 0 0 1-1.6-2.6 3 3 0 0 1 1.6-2.6q.6-.4 1.6-.4m0 1q-.6 0-1 .3a2 2 0 0 0-1 1.8q0 .6.2 1t.7.7 1.1.3 1-.3.8-.7a2 2 0 0 0 0-2l-.7-.8q-.5-.2-1.1-.2m19.3-2.4v.2l-.4 5.8-1.2-.1a22 22 0 0 0 .5-6v-.3h-8v-1h9.1zm1.5 8.5H281v-1h4.7v-4.6h1v4.7h6.2zm15.2-1.6H307v-9.5h1.2zm.4 3.2h-8.8v-4.2h1.1v3.2h7.7zm-7.4-11.8q1 0 1.7.4.8.4 1.2 1.1.5.7.5 1.7a3 3 0 0 1-1.7 2.8q-.8.4-1.7.4-1 0-1.8-.4t-1.2-1.1-.5-1.7.5-1.7a3 3 0 0 1 1.2-1.1q.8-.4 1.8-.4m0 1q-.7 0-1.2.3a2 2 0 0 0-1.1 1.9q0 .6.3 1.1t.8.8a3 3 0 0 0 2.3 0 2 2 0 0 0 1.1-2 2 2 0 0 0-1-1.8zm20.9 5.2h-12v-1h12zm-6 1.2q1.5 0 2.4.2 1 .3 1.6.8.5.6.5 1.3t-.5 1.3q-.6.5-1.6.8t-2.4.3-2.4-.3-1.5-.8-.6-1.3.6-1.2 1.5-.9 2.4-.2m0 .9q-1.5 0-2.4.3-.9.4-.9 1.1t.9 1 2.4.4l1.8-.1q.8-.2 1.1-.5.5-.3.5-.8 0-.7-1-1-.7-.4-2.4-.4m4.9-7.6H317q0 .7.6 1.3t1.7 1 2.2.6l-.4.9-2-.5q-1-.3-1.8-1-.7-.5-1-1.2l-1.1 1.3-1.8.9-2 .5-.4-1q1.1 0 2.2-.5 1-.3 1.6-1t.7-1.3h-4.1v-1h9.7zm12.1 1.7h2v1h-2v3.2H332v-7.5h1.1zm-7 6.2h5.9v-1.4h1.1v4.7H325v-4.7h1.1zm5.9 2.4v-1.5h-6v1.5zm-1.2-9.6H323v-1h3.3v-1.5h1.1v1.5h3.4zm-4 .6q1 0 1.7.3t1.1.8.4 1.1q0 .8-.4 1.3t-1.1.8l-1.6.2q-1 0-1.7-.2t-1-.8a2 2 0 0 1-.5-1.2q0-.8.4-1.2.4-.6 1.1-.9zm0 .9-1 .1q-.5.2-.7.5-.3.3-.3.8 0 .3.3.7t.7.5l1 .2 1.1-.2.8-.5.2-.7q0-.5-.3-.8t-.7-.5zm-257 31.2h-1.2v-13h1.2zm-8.8-4.4q3.3 0 6.2-.6l.2 1a33 33 0 0 1-6.5.6h-1v-8.3h1zm20.9-3.5h2v1h-2.2v7h-1.2v-13.1H82zm-3.5-3h-4.9v6.7a42 42 0 0 0 6-.5l.1 1-2.8.4h-4.4v-8.5h6zm7.5 9.8-.4-.1a1 1 0 0 1-.5-.9 1 1 0 0 1 .5-.8l.4-.1.5.1q.2.1.3.4a1 1 0 0 1 0 1l-.3.3z"/><rect width="134" height="5" x="121" y="1558" fill="#000" rx="2.5"/><path fill="#fff" d="M0 0h375v104H0z"/><rect width="21" height="10.3" x="336.8" y="17.8" stroke="#000" opacity=".3" rx="2.2"/><path fill="#000" d="M359.3 21v4a2.2 2.2 0 0 0 0-4" opacity=".4"/><rect width="18" height="7.3" x="338.3" y="19.3" fill="#000" rx="1.3"/><path fill="#000" d="M321.4 25.8a3.5 3.5 0 0 1 4.5 0v.4l-2 2a.3.3 0 0 1-.5 0l-2-2zm-2.6-2.7c2.7-2.6 7-2.6 9.8 0v.4l-1.2 1.2q-.2.2-.4 0a5 5 0 0 0-6.6 0h-.5l-1.1-1.2-.1-.2zm-2.7-2.7a11 11 0 0 1 15.1 0l.1.2v.2L330 22h-.5a8.7 8.7 0 0 0-12 0h-.3l-1.2-1.2zM296 24.3q1 .1 1 1v2q0 1-1 1h-1a1 1 0 0 1-1-1v-2q0-.9 1-1zm4.7-2q.9.1 1 1v4q-.1 1-1 1h-1a1 1 0 0 1-1-1v-4q0-.9 1-1zm9.3-4.6q1 0 1 1v8.6q0 1-1 1h-1a1 1 0 0 1-1-1v-8.6q0-1 1-1zm-4.7 2.3q1 0 1 1v6.3q0 1-1 1h-1a1 1 0 0 1-1-1V21q.1-1 1-1zM37.2 17.5c2.3 0 4.2 1.6 4.2 5.4q-.1 5.5-4.2 5.7-3.1-.2-3.8-2.8h1.9q.5 1.2 1.9 1.2c1.6 0 2.4-1.6 2.4-3.6V23h-.1q-.6 1.5-2.8 1.6c-2 0-3.4-1.5-3.4-3.5 0-2.1 1.6-3.7 4-3.7m0 5.8a2 2 0 0 0 2.1-2v-.1c0-1.2-1-2.2-2-2.2a2 2 0 0 0-2.2 2.1 2 2 0 0 0 2.1 2.2m7.3-1.8q-1.1 0-1.2-1.2 0-1 1.2-1.1 1 .1 1.1 1.1-.1 1.1-1.1 1.2m0 5.4q-1.1-.1-1.2-1.1 0-1.1 1.2-1.2 1 0 1.1 1.2-.1 1-1.1 1.1m8.1 1.4v-2h-5.2v-1.5l4.3-7h2.7v7h1.4v1.5h-1.4v2zm-3.4-3.5h3.4v-5.5q-1.9 2.6-3.4 5.4M60 28.1v-8.7h-.1l-2.6 1.9v-1.8l2.7-2h2v10.6z"/><path stroke="#acb4bd" stroke-linecap="round" stroke-linejoin="round" stroke-width="2" d="M24 67h16m-16 7h16m-16 7h16"/><path fill="#353a40" d="M67 68.6H56.6v-2h4V65h2.6v1.7h4zm-5.2.5q1.3 0 2.3.5.9.3 1.5 1.1.6.7.6 1.7t-.6 1.7-1.5 1.2-2.3.4a6 6 0 0 1-2.3-.4q-1-.5-1.6-1.2-.5-.7-.5-1.7t.5-1.7q.6-.8 1.6-1.1 1-.5 2.3-.5m0 2q-.9 0-1.5.3t-.5 1 .5 1q.6.4 1.5.4t1.5-.4q.5-.3.5-1t-.5-1-1.5-.4m8.8-1.5H73v2h-2.4v4.6h-2.5V65h2.5zm0 13.2h-2.5v-3.9h-9.4v-2h12zM79 68.2q0 1 .3 1.9.4 1 1.2 1.7t1.9 1.1L81 75a6 6 0 0 1-3.2-3 7 7 0 0 1-1.3 2q-1 1-2 1.5l-1.4-2q1.2-.4 2-1.3a6 6 0 0 0 1.5-4v-2H79zm9.6 7.7h-2.4v-4.5h-1.5v4h-2.3v-10h2.3v4h1.5V65h2.4zm-6 .3q1.8-.1 3.2.4 1.3.3 2.1 1.1a2.4 2.4 0 0 1 0 3.5q-.7.8-2.1 1.2t-3.3.4-3.2-.4-2.2-1.2-.7-1.7.7-1.8q.7-.8 2.2-1.1 1.4-.4 3.2-.4m0 1.8q-2 0-2.8.4-1 .3-1 1 0 .9 1 1.2a8 8 0 0 0 2.7.3q1.7 0 2.7-.3 1-.4 1-1.1t-1-1.1-2.7-.4m11.7-12q1 0 2 .5t1.5 1.5.6 2.1-.6 2.2q-.5.8-1.4 1.4-1 .5-2.1.5t-2.2-.5q-.8-.5-1.4-1.4-.6-1-.5-2.2t.5-2.1 1.4-1.5 2.2-.5m0 2q-.8 0-1.4.6t-.5 1.5.5 1.5q.6.6 1.4.6t1.3-.6.5-1.5-.5-1.5-1.3-.6m11 6.7H103v-4h-1.5v3.9h-2.3v-9.2h2.3v3.3h1.5V65h2.4zM95.8 77h7.2v-1.6h2.5v7.2H93.2v-7.2h2.5zm7.2 3.6V79h-7.2v1.6zM117.5 69q0 1.7.5 3.2t1.4 2.7 2.3 2l-1.5 2a7 7 0 0 1-2.3-2 10 10 0 0 1-1.6-3q-.7 1.9-1.6 3.2t-2.6 2l-1.5-2q1.5-.6 2.5-1.9t1.4-2.9.5-3.3v-2.6h2.5zm7.5 3h2.6v2H125v8.9h-2.5V65h2.5zm19 3.5h-16.2v-2h3.6v-2a4 4 0 0 1-1.5-1.2q-.5-.7-.5-1.5 0-1 .8-1.8t2.2-1.2 3.5-.4 3.4.4 2.2 1.2.8 1.8q0 .8-.5 1.5a4 4 0 0 1-1.5 1.1v2.1h3.7zm-8.1 1q1.8 0 3.3.3 1.3.5 2.1 1.1.7.7.8 1.8 0 1-.8 1.7-.7.8-2.1 1.1t-3.3.4q-2 0-3.4-.4-1.4-.3-2.1-1-.8-.9-.8-1.8t.8-1.8q.8-.7 2.1-1t3.4-.4m0 1.8q-3.7 0-3.7 1.4t3.7 1.3 3.7-1.3-3.7-1.4m0-11q-1.9 0-3 .4-1 .3-.9 1.1t1 1.1q1 .4 2.9.4t2.9-.4 1-1q0-.9-1-1.2-1-.4-3-.4m1.9 6.2V72a17 17 0 0 1-3.9 0v1.4zm21.7.7H157v-4.4h-3.4v-2h3.4V65h2.4zm0 5.5h-9.3v1h9.9v2h-12.4v-4.9h9.4v-1h-9.4v-1.9h11.8zM151.1 67q0 1 .4 2t1.4 1.8q1 .9 2.3 1.2l-1.3 2a7 7 0 0 1-4-3.3 7 7 0 0 1-4.3 3.6l-1.3-2q1.5-.4 2.4-1.2 1-.8 1.4-1.9.5-1 .5-2.2v-1.3h2.5zm25.1 8.5h-2.5v-2.2h-3.3v1.3H162v-8.2h8.4v1.3h3.3V65h2.5zm-11.7-3h3.5v-4.1h-3.5zm5.7 3.5q1.8 0 3.2.4t2.1 1.2.8 1.9q0 1-.8 1.8t-2 1.2-3.3.4q-2 0-3.3-.4-1.4-.5-2.1-1.2t-.8-1.8.8-1.9q.8-.8 2-1.2 1.5-.4 3.4-.4m0 1.9q-1.8 0-2.8.4-.9.3-.9 1.2t1 1.1q.9.4 2.7.4 1.6 0 2.7-.4 1-.3 1-1.1t-1-1.2-2.7-.4m3.5-6.6v-1.6h-3.3v1.6zm11-2.2q0 1.8.5 3.3t1.5 2.8 2.4 1.8l-1.6 2q-1.4-.7-2.4-2a10 10 0 0 1-1.6-3q-.7 1.9-1.6 3.2t-2.6 2.1l-1.5-2q1.5-.5 2.4-2 1-1.2 1.5-2.8t.5-3.4v-2.6h2.6zm8.3 13.8h-2.4V72.6h-3.5v-2h3.5V65h2.4z"/></g><defs><clipPath id="a"><path fill="#fff" d="M0 0h375v1571H0z"/></clipPath><clipPath id="b"><path fill="#fff" d="M37.5 314h300v645h-300z"/></clipPath><clipPath id="c"><rect width="296" height="641" x="39.5" y="316" fill="#fff" rx="16"/></clipPath><clipPath id="d"><rect width="31.6" height="31.6" x="55.3" y="358.6" fill="#fff" rx="15.8"/></clipPath><clipPath id="g"><rect width="239.2" height="34.7" x="67.9" y="578.1" fill="#fff" rx="9.5"/></clipPath><clipPath id="j"><path fill="#fff" d="M68 922h12.5v12.6H68z"/></clipPath><clipPath id="m"><path fill="#fff" d="M232.6 888.1h18.9v19h-19z"/></clipPath><filter id="e" width="9.9" height="10.1" x="240.4" y="557.9" color-interpolation-filters="sRGB" filterUnits="userSpaceOnUse"><feFlood flood-opacity="0" result="BackgroundImageFix"/><feColorMatrix in="SourceAlpha" result="hardAlpha" values="0 0 0 0 0 0 0 0 0 0 0 0 0 0 0 0 0 0 127 0"/><feOffset dx=".5" dy=".6"/><feComposite in2="hardAlpha" operator="out"/><feColorMatrix values="0 0 0 0 0.847059 0 0 0 0 0.87451 0 0 0 0 0.890196 0 0 0 1 0"/><feBlend in2="BackgroundImageFix" result="effect1_dropShadow_10632_38623"/><feBlend in="SourceGraphic" in2="effect1_dropShadow_10632_38623" result="shape"/></filter><filter id="f" width="9.9" height="10.1" x="281.5" y="557.9" color-interpolation-filters="sRGB" filterUnits="userSpaceOnUse"><feFlood flood-opacity="0" result="BackgroundImageFix"/><feColorMatrix in="SourceAlpha" result="hardAlpha" values="0 0 0 0 0 0 0 0 0 0 0 0 0 0 0 0 0 0 127 0"/><feOffset dx=".5" dy=".6"/><feComposite in2="hardAlpha" operator="out"/><feColorMatrix values="0 0 0 0 0.847059 0 0 0 0 0.87451 0 0 0 0 0.890196 0 0 0 1 0"/><feBlend in2="BackgroundImageFix" result="effect1_dropShadow_10632_38623"/><feBlend in="SourceGraphic" in2="effect1_dropShadow_10632_38623" result="shape"/></filter><filter id="h" width="11.6" height="11.8" x="132.1" y="781.2" color-interpolation-filters="sRGB" filterUnits="userSpaceOnUse"><feFlood flood-opacity="0" result="BackgroundImageFix"/><feColorMatrix in="SourceAlpha" result="hardAlpha" values="0 0 0 0 0 0 0 0 0 0 0 0 0 0 0 0 0 0 127 0"/><feOffset dx=".6" dy=".7"/><feComposite in2="hardAlpha" operator="out"/><feColorMatrix values="0 0 0 0 0.847059 0 0 0 0 0.87451 0 0 0 0 0.890196 0 0 0 1 0"/><feBlend in2="BackgroundImageFix" result="effect1_dropShadow_10632_38623"/><feBlend in="SourceGraphic" in2="effect1_dropShadow_10632_38623" result="shape"/></filter><filter id="i" width="11.6" height="11.8" x="132.1" y="852" color-interpolation-filters="sRGB" filterUnits="userSpaceOnUse"><feFlood flood-opacity="0" result="BackgroundImageFix"/><feColorMatrix in="SourceAlpha" result="hardAlpha" values="0 0 0 0 0 0 0 0 0 0 0 0 0 0 0 0 0 0 127 0"/><feOffset dx=".6" dy=".7"/><feComposite in2="hardAlpha" operator="out"/><feColorMatrix values="0 0 0 0 0.847059 0 0 0 0 0.87451 0 0 0 0 0.890196 0 0 0 1 0"/><feBlend in2="BackgroundImageFix" result="effect1_dropShadow_10632_38623"/><feBlend in="SourceGraphic" in2="effect1_dropShadow_10632_38623" result="shape"/></filter><filter id="k" width="11.6" height="11.8" x="132.1" y="922.8" color-interpolation-filters="sRGB" filterUnits="userSpaceOnUse"><feFlood flood-opacity="0" result="BackgroundImageFix"/><feColorMatrix in="SourceAlpha" result="hardAlpha" values="0 0 0 0 0 0 0 0 0 0 0 0 0 0 0 0 0 0 127 0"/><feOffset dx=".6" dy=".7"/><feComposite in2="hardAlpha" operator="out"/><feColorMatrix values="0 0 0 0 0.847059 0 0 0 0 0.87451 0 0 0 0 0.890196 0 0 0 1 0"/><feBlend in2="BackgroundImageFix" result="effect1_dropShadow_10632_38623"/><feBlend in="SourceGraphic" in2="effect1_dropShadow_10632_38623" result="shape"/></filter><filter id="l" width="311.8" height="90.9" x="32" y="872.3" color-interpolation-filters="sRGB" filterUnits="userSpaceOnUse"><feFlood flood-opacity="0" result="BackgroundImageFix"/><feColorMatrix in="SourceAlpha" result="hardAlpha" values="0 0 0 0 0 0 0 0 0 0 0 0 0 0 0 0 0 0 127 0"/><feOffset dy="-1.6"/><feGaussianBlur stdDeviation="3.9"/><feComposite in2="hardAlpha" operator="out"/><feColorMatrix values="0 0 0 0 0 0 0 0 0 0 0 0 0 0 0 0 0 0 0.05 0"/><feBlend in2="BackgroundImageFix" result="effect1_dropShadow_10632_38623"/><feBlend in="SourceGraphic" in2="effect1_dropShadow_10632_38623" result="shape"/></filter></defs><rect x="0" y="136" width="375" height="13" fill="white"/>
</svg>